<svg xmlns="http://www.w3.org/2000/svg" version="1.1" xmlns:xlink="http://www.w3.org/1999/xlink" xmlns:svgjs="http://svgjs.com/svgjs" x="0" y="0" viewBox="0 0 512 512" style="enable-background:new 0 0 512 512" xml:space="preserve" class=""><g><path d="M256 20C125.872 20 20 125.872 20 256s105.872 236 236 236 236-105.872 236-236S386.128 20 256 20zm-99.36 367.712V124.288l246.72 131.72-246.72 131.704z" style="" fill="#393939" data-original="#ffffff" class=""></path><path d="M512 256C512 114.616 397.384 0 256 0S0 114.616 0 256s114.616 256 256 256 256-114.616 256-256zM256 492C125.872 492 20 386.128 20 256S125.872 20 256 20s236 105.872 236 236-105.872 236-236 236z" style="" fill="#ffffff" data-original="#8ad5dd" class=""></path><path d="m156.64 387.712 246.72-131.704-246.72-131.72z" style="" fill="#ffffff" data-original="#db2b42" class=""></path></g></svg>