<svg xmlns="http://www.w3.org/2000/svg" version="1.1" xmlns:xlink="http://www.w3.org/1999/xlink" xmlns:svgjs="http://svgjs.com/svgjs" width="512" height="512" x="0" y="0" viewBox="0 0 64 64" style="enable-background:new 0 0 512 512" xml:space="preserve"><g><path d="M47.842 20.954h-5.684l-.43-1.29a4.152 4.152 0 0 0-3.945-2.843H26.217a4.152 4.152 0 0 0-3.944 2.844l-.43 1.289h-5.685A4.163 4.163 0 0 0 12 25.112v17.909a4.163 4.163 0 0 0 4.158 4.158h31.684A4.163 4.163 0 0 0 52 43.02V25.112a4.163 4.163 0 0 0-4.158-4.158Zm2.73 22.066a2.732 2.732 0 0 1-2.73 2.73H16.158a2.732 2.732 0 0 1-2.73-2.73V25.113a2.732 2.732 0 0 1 2.73-2.73h6.2a.714.714 0 0 0 .676-.488l.593-1.777a2.727 2.727 0 0 1 2.59-1.867h11.566a2.727 2.727 0 0 1 2.59 1.867l.593 1.777a.714.714 0 0 0 .677.489h6.199a2.732 2.732 0 0 1 2.73 2.73Z" fill="#000000" data-original="#000000"></path><path d="M32 24.78a9.286 9.286 0 1 0 9.286 9.286A9.296 9.296 0 0 0 32 24.781Zm0 17.143a7.857 7.857 0 1 1 7.857-7.857A7.866 7.866 0 0 1 32 41.923Z" fill="#000000" data-original="#000000"></path><path d="M32 27.638a6.436 6.436 0 0 0-6.429 6.428.714.714 0 1 0 1.429 0 5.006 5.006 0 0 1 5-5 .714.714 0 0 0 0-1.428ZM47.714 24.78h-2.857a.714.714 0 0 0 0 1.43h2.857a.714.714 0 1 0 0-1.43ZM47.714 30.758h-2.857a.714.714 0 0 0 0 1.429h2.857a.714.714 0 1 0 0-1.429ZM19.143 24.78h-2.857a.714.714 0 1 0 0 1.43h2.857a.714.714 0 0 0 0-1.43ZM19.143 30.758h-2.857a.714.714 0 1 0 0 1.429h2.857a.714.714 0 0 0 0-1.429Z" fill="#000000" data-original="#000000"></path><path d="M32 2a30 30 0 1 0 30 30A30.034 30.034 0 0 0 32 2Zm0 58.39A28.39 28.39 0 1 1 60.39 32 28.422 28.422 0 0 1 32 60.39Z" fill="#000000" data-original="#000000"></path></g></svg>