<svg xmlns="http://www.w3.org/2000/svg" version="1.1" xmlns:xlink="http://www.w3.org/1999/xlink" xmlns:svgjs="http://svgjs.com/svgjs" width="512" height="512" x="0" y="0" viewBox="0 0 32 32" style="enable-background:new 0 0 512 512" xml:space="preserve" class=""><g><path d="M17.02 1.135c-.484-.048-.925.341-.958.837a.898.898 0 0 0 .837.958C23.74 3.394 29.1 9.135 29.1 16c0 7.224-5.876 13.1-13.1 13.1a13.104 13.104 0 0 1-9.885-4.502.9.9 0 0 0-1.358 1.182A14.908 14.908 0 0 0 16 30.9c8.216 0 14.9-6.685 14.9-14.9 0-7.809-6.097-14.339-13.88-14.865zM8.43 5.12c.17 0 .34-.051.49-.141 0-.01.01-.01.01-.01 1.05-.68 2.19-1.2 3.38-1.54a.91.91 0 0 0 .61-1.12c-.14-.459-.65-.749-1.12-.609-1.36.399-2.66.989-3.86 1.76a.919.919 0 0 0-.27 1.25c.17.26.45.41.76.41zM2.899 16c0-.5-.399-.9-.899-.9s-.9.4-.9.9c0 1.41.2 2.8.58 4.13.01.02.01.05.021.07v.01c.119.37.47.63.859.63.09 0 .17-.01.25-.03.391-.12.66-.47.65-.87 0-.09-.01-.17-.03-.25A13.17 13.17 0 0 1 2.899 16zM5.33 6.89a.916.916 0 0 0-1.261.179A14.836 14.836 0 0 0 2.04 10.79c-.04.1-.061.2-.061.31 0 .37.23.72.58.851.101.028.211.049.321.049.37 0 .71-.23.84-.58.44-1.17 1.04-2.271 1.79-3.271a.896.896 0 0 0-.18-1.259z" fill="#000000" data-original="#000000"></path><path d="M11.875 15.1a.9.9 0 0 0 0 1.8H15.1v3.225a.9.9 0 0 0 1.8 0V16.9h3.225a.9.9 0 0 0 0-1.8H16.9v-3.225a.9.9 0 0 0-1.8 0V15.1z" fill="#000000" data-original="#000000"></path></g></svg>