<svg xmlns="http://www.w3.org/2000/svg" version="1.1" xmlns:xlink="http://www.w3.org/1999/xlink" xmlns:svgjs="http://svgjs.com/svgjs" width="512" height="512" x="0" y="0" viewBox="0 0 32 32" style="enable-background:new 0 0 512 512" xml:space="preserve" class=""><g><path d="M28.47 9.31a3 3 0 0 0-3.19.36l-2.58 2.07V10a3 3 0 0 0-3-3H5.3a3 3 0 0 0-3 3v12a3 3 0 0 0 3 3h14.4a3 3 0 0 0 3-3v-1.74l2.58 2.07a3 3 0 0 0 1.88.66 3.06 3.06 0 0 0 1.31-.3 3 3 0 0 0 1.7-2.7V12a3 3 0 0 0-1.7-2.69zM20.7 22a1 1 0 0 1-1 1H5.3a1 1 0 0 1-1-1V10a1 1 0 0 1 1-1h14.4a1 1 0 0 1 1 1zm7.47-2a1 1 0 0 1-1.63.78l-3.84-3.09v-3.38l3.84-3.08a1 1 0 0 1 1.63.78z" data-name="Layer 42" fill="#000000" data-original="#000000" class=""></path></g></svg>