<svg xmlns="http://www.w3.org/2000/svg" version="1.1" xmlns:xlink="http://www.w3.org/1999/xlink" xmlns:svgjs="http://svgjs.com/svgjs" width="512" height="512" x="0" y="0" viewBox="0 0 48 48" style="enable-background:new 0 0 512 512" xml:space="preserve" class=""><g><path d="M13.256 21H6a5.004 5.004 0 0 0-3.536 1.464A5.004 5.004 0 0 0 1 26v16c0 1.326.527 2.598 1.464 3.536A5.004 5.004 0 0 0 6 47h32.531a5 5 0 0 0 4.95-4.293l3.02-21.141A4 4 0 0 0 42.541 17H29V8a7 7 0 0 0-7-7h-.512a2.999 2.999 0 0 0-2.873 2.138zM13 23v22H6a2.996 2.996 0 0 1-2.121-.879A2.996 2.996 0 0 1 3 42V26c0-.796.316-1.559.879-2.121A2.996 2.996 0 0 1 6 23zm8.488-20H22a5 5 0 0 1 5 5v10a1 1 0 0 0 1 1h14.541a2 2 0 0 1 1.98 2.283l-3.02 21.141A3 3 0 0 1 38.531 45H15V22.147l5.53-18.434A1 1 0 0 1 21.488 3z" fill="#000000" data-original="#000000"></path></g></svg>