<svg xmlns="http://www.w3.org/2000/svg" version="1.1" xmlns:xlink="http://www.w3.org/1999/xlink"
    xmlns:svgjs="http://svgjs.com/svgjs" width="512" height="512" x="0" y="0" viewBox="0 0 512 512"
    style="enable-background:new 0 0 512 512" xml:space="preserve" className=""><g><path d="M368.033 273.203H223.742c-79.384 0-143.969 64.584-143.969 143.969v33.76c0 9.765 7.916 17.682 17.682 17.682h396.863c9.765 0 17.682-7.916 17.682-17.682v-33.76c0-79.385-64.583-143.969-143.967-143.969zm108.604 160.044h-361.5v-16.075c.068-59.953 48.653-108.538 108.606-108.606h144.291c59.952.068 108.536 48.653 108.604 108.606v16.075zM295.012 229.794c51.475 0 93.203-41.729 93.203-93.203s-41.729-93.203-93.203-93.203-93.203 41.729-93.203 93.203c.057 51.451 41.752 93.145 93.203 93.203zm0-151.043c31.944 0 57.84 25.896 57.84 57.84s-25.896 57.84-57.84 57.84-57.84-25.896-57.84-57.84v-.001c.036-31.929 25.911-57.804 57.84-57.839zM106.768 256.581v-53.72h53.72c9.765 0 17.682-7.916 17.682-17.682 0-9.765-7.916-17.682-17.682-17.682h-53.72v-53.72c0-9.765-7.916-17.682-17.682-17.682s-17.682 7.916-17.682 17.682v53.72H17.682C7.916 167.498 0 175.414 0 185.18c0 9.765 7.916 17.682 17.682 17.682h53.723v53.72c0 9.765 7.916 17.682 17.682 17.682s17.681-7.918 17.681-17.683z" fill="#000000" data-original="#000000"></path></g></svg>