<svg width="246" height="151" viewBox="0 0 246 151" fill="none" xmlns="http://www.w3.org/2000/svg">
<rect width="246" height="151" fill="white"/>
<path d="M120.093 8.75778C83.4165 23.2808 63.9493 48.122 54.8086 69.7058C47.4364 87.114 50.8909 107.55 63.59 121.554C86.5291 146.851 119.778 152.47 148.172 150.427C173.213 148.625 192.878 128.764 196.43 103.912C202.349 62.4835 191.232 35.0158 176.888 18.4754C163.09 2.5656 139.673 1.00449 120.093 8.75778Z" fill="#F0F4FB"/>
<mask id="mask0_4484_4562" style="mask-type:alpha" maskUnits="userSpaceOnUse" x="50" y="4" width="149" height="147">
<path d="M120.093 8.75778C83.4165 23.2808 63.9493 48.122 54.8086 69.7058C47.4364 87.114 50.8909 107.55 63.59 121.554C86.5291 146.851 119.778 152.47 148.172 150.427C173.213 148.625 192.878 128.764 196.43 103.912C202.349 62.4835 191.232 35.0158 176.888 18.4754C163.09 2.5656 139.673 1.00449 120.093 8.75778Z" fill="#F0F4FB"/>
</mask>
<g mask="url(#mask0_4484_4562)">
<ellipse cx="129" cy="120" rx="48" ry="6" fill="#DEE5F0"/>
</g>
<g clip-path="url(#clip0_4484_4562)">
<path d="M131 83C136.967 83 142.69 80.6295 146.91 76.4099C151.129 72.1903 153.5 66.4674 153.5 60.5C153.5 54.5326 151.129 48.8097 146.91 44.5901C142.69 40.3705 136.967 38 131 38C125.033 38 119.31 40.3705 115.09 44.5901C110.871 48.8097 108.5 54.5326 108.5 60.5C108.5 66.4674 110.871 72.1903 115.09 76.4099C119.31 80.6295 125.033 83 131 83ZM116.203 88C102.281 88 91 99.2812 91 113.203C91 115.859 93.1563 118 95.7969 118H166.203C168.859 118 171 115.844 171 113.203C171 99.2812 159.719 88 145.797 88H116.203Z" fill="white"/>
</g>
<circle cx="185" cy="31" r="20" fill="#52C79F"/>
<path d="M191.797 30.2705C192.187 30.2705 192.5 30.6104 192.5 30.9736C192.5 31.3896 192.187 31.6768 191.797 31.6768H185.703V37.7969C185.703 38.1865 185.39 38.5 184.974 38.5C184.61 38.5 184.271 38.1865 184.271 37.7969V31.6768H178.177C177.815 31.6768 177.5 31.3896 177.5 30.9736C177.5 30.6104 177.815 30.2705 178.177 30.2705H184.271V24.2031C184.271 23.8149 184.61 23.5 184.974 23.5C185.39 23.5 185.703 23.8149 185.703 24.2031V30.2705H191.797Z" fill="white"/>
<defs>
<clipPath id="clip0_4484_4562">
<rect width="80" height="80" fill="white" transform="translate(91 38)"/>
</clipPath>
</defs>
</svg>
