<svg width="246" height="151" viewBox="0 0 246 151" fill="none" xmlns="http://www.w3.org/2000/svg">
<rect width="246" height="151" fill="white"/>
<path d="M120.093 8.75778C83.4165 23.2808 63.9493 48.122 54.8086 69.7058C47.4364 87.114 50.8909 107.55 63.59 121.554C86.5291 146.851 119.778 152.47 148.172 150.427C173.213 148.625 192.878 128.764 196.43 103.912C202.349 62.4835 191.232 35.0158 176.888 18.4754C163.09 2.5656 139.673 1.00449 120.093 8.75778Z" fill="#F0F4FB"/>
<ellipse cx="131" cy="123" rx="48" ry="6" fill="#DEE5F0"/>
<g clip-path="url(#clip0_4484_4583)">
<path d="M98 70.7672L131 46.3266L164 70.7672V78.9141L136.758 99.1094C135.091 100.347 133.08 101 131 101C128.92 101 126.909 100.33 125.242 99.1094L98 78.9141V70.7672ZM131 35C128.92 35 126.909 35.6703 125.242 36.8906L91.4516 61.9328C88.65 64.0125 87 67.2781 87 70.7672V112C87 118.067 91.9328 123 98 123H164C170.067 123 175 118.067 175 112V70.7672C175 67.2781 173.35 63.9953 170.548 61.9328L136.758 36.8906C135.091 35.6703 133.08 35 131 35Z" fill="white"/>
<path opacity="0.4" d="M131 46.3266L98 70.7672V78.9141L125.242 99.1094C126.909 100.347 128.92 101 131 101C133.08 101 135.091 100.33 136.758 99.1094L164 78.9141V70.7672L131 46.3266Z" fill="#DEE5F0"/>
<path d="M106 56.5V82.5L126.159 97.8211C129.02 99.9954 132.98 99.9954 135.841 97.8211L156 82.5V56.5C156 54.2909 154.209 52.5 152 52.5H110C107.791 52.5 106 54.2909 106 56.5Z" fill="#52C79F"/>
<path d="M141.831 66.1191C142.323 66.5788 142.323 67.3222 141.831 67.7379L129.095 80.6494C128.685 81.1482 127.952 81.1482 127.498 80.6494L120.939 73.998C120.487 73.5823 120.487 72.8389 120.939 72.3792C121.391 71.9243 122.124 71.9243 122.576 72.3792L128.319 78.204L140.234 66.1191C140.688 65.6623 141.421 65.6623 141.831 66.1191Z" fill="white"/>
</g>
<defs>
<clipPath id="clip0_4484_4583">
<rect width="88" height="88" fill="white" transform="translate(87 35)"/>
</clipPath>
</defs>
</svg>
