<svg xmlns="http://www.w3.org/2000/svg" version="1.1" xmlns:xlink="http://www.w3.org/1999/xlink" xmlns:svgjs="http://svgjs.com/svgjs" width="512" height="512" x="0" y="0" viewBox="0 0 32 32" style="enable-background:new 0 0 512 512" xml:space="preserve"><g><path d="M24.16 11.64h-8.09a7.446 7.446 0 0 1 0 8.72h8.09A4.37 4.37 0 0 0 28.52 16a4.37 4.37 0 0 0-4.36-4.36zm-9.37 0c-.14-.15-.29-.3-.44-.44-.02-.01-.03-.03-.05-.05-.16-.14-.32-.27-.5-.4a3.835 3.835 0 0 0-.54-.35l-.02-.02a4.156 4.156 0 0 0-.47-.24 1.093 1.093 0 0 0-.15-.08c-.18-.08-.37-.15-.55-.21a.169.169 0 0 0-.05-.02q-.315-.105-.63-.18h-.02a5.073 5.073 0 0 0-.68-.11 5.633 5.633 0 0 0-.71-.04 6.5 6.5 0 0 0 0 13 5.633 5.633 0 0 0 .71-.04 5.073 5.073 0 0 0 .68-.11h.02q.315-.075.63-.18a.169.169 0 0 0 .05-.02c.18-.06.37-.13.55-.21a1.093 1.093 0 0 0 .15-.08 4.156 4.156 0 0 0 .47-.24l.02-.02a3.835 3.835 0 0 0 .54-.35c.18-.13.34-.26.5-.4.02-.02.03-.04.05-.05.15-.14.3-.29.44-.44a6.469 6.469 0 0 0 0-8.72zm-2.81 6.67a.5.5 0 0 1-.5.5.5.5 0 0 1-.5-.5v-4.15a.5.5 0 0 1 .5-.5.5.5 0 0 1 .5.5zm-3-4.15v4.15a.5.5 0 0 1-.5.5.5.5 0 0 1-.5-.5v-4.15a.5.5 0 0 1 .5-.5.5.5 0 0 1 .5.5z" data-name="Layer 43" fill="#000000" data-original="#000000"></path></g></svg>