<svg width="246" height="151" viewBox="0 0 246 151" fill="none" xmlns="http://www.w3.org/2000/svg">
<rect width="246" height="151" fill="white"/>
<path d="M120.093 8.75778C83.4165 23.2808 63.9493 48.122 54.8086 69.7058C47.4364 87.114 50.8909 107.55 63.59 121.554C86.5291 146.851 119.778 152.47 148.172 150.427C173.213 148.625 192.878 128.764 196.43 103.912C202.349 62.4835 191.232 35.0158 176.888 18.4754C163.09 2.5656 139.673 1.00449 120.093 8.75778Z" fill="#F0F4FB"/>
<mask id="mask0_4484_4604" style="mask-type:alpha" maskUnits="userSpaceOnUse" x="50" y="4" width="149" height="147">
<path d="M120.093 8.75778C83.4165 23.2808 63.9493 48.122 54.8086 69.7058C47.4364 87.114 50.8909 107.55 63.59 121.554C86.5291 146.851 119.778 152.47 148.172 150.427C173.213 148.625 192.878 128.764 196.43 103.912C202.349 62.4835 191.232 35.0158 176.888 18.4754C163.09 2.5656 139.673 1.00449 120.093 8.75778Z" fill="#F0F4FB"/>
</mask>
<g mask="url(#mask0_4484_4604)">
<ellipse cx="129" cy="120" rx="48" ry="6" fill="#DEE5F0"/>
</g>
<g clip-path="url(#clip0_4484_4604)">
<path d="M131 83C136.967 83 142.69 80.6295 146.91 76.4099C151.129 72.1903 153.5 66.4674 153.5 60.5C153.5 54.5326 151.129 48.8097 146.91 44.5901C142.69 40.3705 136.967 38 131 38C125.033 38 119.31 40.3705 115.09 44.5901C110.871 48.8097 108.5 54.5326 108.5 60.5C108.5 66.4674 110.871 72.1903 115.09 76.4099C119.31 80.6295 125.033 83 131 83ZM116.203 88C102.281 88 91 99.2812 91 113.203C91 115.859 93.1563 118 95.7969 118H166.203C168.859 118 171 115.844 171 113.203C171 99.2812 159.719 88 145.797 88H116.203Z" fill="white"/>
</g>
<circle cx="89" cy="89" r="20" fill="#EB3939"/>
<g clip-path="url(#clip1_4484_4604)">
<path d="M89 81.7367L82.5664 84.4648C82.359 84.5527 82.2465 84.7391 82.25 84.9148C82.2676 88.1281 83.6 93.6793 88.8031 96.1684C88.9297 96.2281 89.0774 96.2281 89.2004 96.1684C94.4035 93.6758 95.736 88.1281 95.75 84.9113C95.75 84.7355 95.641 84.5527 95.4336 84.4613L89 81.7367ZM89.4711 80.102L96.091 82.9109C96.8645 83.2379 97.441 84.0008 97.4375 84.9219C97.4199 88.4094 95.9856 94.7902 89.9281 97.6906C89.341 97.9719 88.659 97.9719 88.0719 97.6906C82.0145 94.7902 80.5801 88.4094 80.5625 84.9219C80.559 84.0008 81.1356 83.2379 81.909 82.9109L88.5324 80.102C88.6766 80.0352 88.8383 80 89 80C89.1617 80 89.3235 80.0352 89.4711 80.102Z" fill="white"/>
</g>
<defs>
<clipPath id="clip0_4484_4604">
<rect width="80" height="80" fill="white" transform="translate(91 38)"/>
</clipPath>
<clipPath id="clip1_4484_4604">
<rect width="18" height="18" fill="white" transform="translate(80 80)"/>
</clipPath>
</defs>
</svg>
