<svg width="151" height="151" viewBox="0 0 151 151" fill="none" xmlns="http://www.w3.org/2000/svg">
<path d="M72.0928 8.75778C35.4165 23.2808 15.9493 48.122 6.80864 69.7058C-0.563613 87.114 2.89085 107.55 15.59 121.554C38.5291 146.851 71.7778 152.47 100.172 150.427C125.213 148.625 144.878 128.764 148.43 103.912C154.349 62.4835 143.232 35.0158 128.888 18.4754C115.09 2.5656 91.6728 1.00449 72.0928 8.75778Z" fill="#F0F4FB"/>
<circle cx="82" cy="80" r="35.5" fill="white" stroke="#E4EDF4"/>
<path d="M96.2624 91.1693C97.1408 92.0454 97.1408 93.4668 96.2624 94.3429C95.3839 95.2191 93.9587 95.219 93.0802 94.3429L82.0015 83.2119L70.8441 94.3392C69.9657 95.2152 68.5404 95.2152 67.6619 94.3392C66.7834 93.4631 66.7835 92.0417 67.6619 91.1656L78.8231 80.0421L67.6588 68.8307C66.7804 67.9546 66.7804 66.5332 67.6588 65.6571C68.5373 64.7809 69.9625 64.781 70.841 65.6571L82.0015 76.8722L93.1589 65.745C94.0374 64.8689 95.4626 64.8689 96.3411 65.745C97.2197 66.621 97.2196 68.0424 96.3411 68.9186L85.18 80.0421L96.2624 91.1693Z" fill="#EB3939"/>
</svg>
