<svg xmlns="http://www.w3.org/2000/svg" version="1.1" xmlns:xlink="http://www.w3.org/1999/xlink" xmlns:svgjs="http://svgjs.com/svgjs" width="512" height="512" x="0" y="0" viewBox="0 0 426 426.798" style="enable-background:new 0 0 512 512" xml:space="preserve" class=""><g><path d="M309.73 85.469h-10.664V62.168c14.692-5.191 23.508-20.219 20.872-35.578C317.3 11.227 303.983 0 288.397 0c-15.586 0-28.902 11.227-31.539 26.59-2.636 15.36 6.18 30.387 20.871 35.578v23.3h-128v-23.3c14.696-5.191 23.508-20.219 20.875-35.578C167.97 11.227 154.652 0 139.066 0c-15.586 0-28.906 11.227-31.539 26.59-2.636 15.36 6.176 30.387 20.871 35.578v23.3H117.73c-29.44.032-53.3 23.891-53.332 53.333v181.332c.032 29.445 23.891 53.305 53.332 53.336h32v42.664a10.675 10.675 0 0 0 5.5 9.328 10.662 10.662 0 0 0 10.82-.285l82.743-51.707h60.937c29.446-.028 53.31-23.89 53.336-53.336V138.8c-.027-29.442-23.89-53.305-53.336-53.332zm-149.332 64c17.665.02 31.98 14.336 32 32 0 5.89-4.773 10.664-10.668 10.664-5.89 0-10.664-4.774-10.664-10.664S166.29 170.8 160.398 170.8c-5.89 0-10.668 4.777-10.668 10.668s-4.773 10.664-10.664 10.664-10.668-4.774-10.668-10.664c.02-17.664 14.336-31.98 32-32zm132.77 132.207a180.697 180.697 0 0 1-79.438 17.25c-27.445.36-54.609-5.54-79.437-17.25-5.27-2.633-7.402-9.043-4.77-14.313 2.637-5.27 9.043-7.406 14.313-4.77 39.844 19.915 99.957 19.915 139.793 0 5.27-2.636 11.676-.5 14.312 4.77 2.633 5.27.497 11.68-4.773 14.313zm-4.77-89.543c-2.828.004-5.543-1.121-7.543-3.121s-3.125-4.715-3.125-7.543c0-5.89-4.773-10.668-10.664-10.668s-10.668 4.777-10.668 10.668-4.773 10.664-10.668 10.664c-5.89 0-10.664-4.774-10.664-10.664 0-17.676 14.325-32 32-32 17.672 0 32 14.324 32 32 0 2.828-1.12 5.543-3.125 7.543-2 2-4.714 3.125-7.543 3.12zM395.066 170.8h-10.668V277.47h10.668c17.664-.02 31.98-14.336 32-32V202.8c-.02-17.664-14.336-31.98-32-32zM.398 202.8v42.669c.02 17.664 14.336 31.98 32 32h10.668V170.8H32.398c-17.664.02-31.98 14.336-32 32zm0 0" fill="#000000" data-original="#000000" class=""></path></g></svg>