<?xml version="1.0" encoding="utf-8"?>
<!-- Generator: Adobe Illustrator 25.2.1, SVG Export Plug-In . SVG Version: 6.00 Build 0)  -->
<svg version="1.1" xmlns="http://www.w3.org/2000/svg" xmlns:xlink="http://www.w3.org/1999/xlink" x="0px" y="0px"
	 viewBox="0 0 500 500" style="enable-background:new 0 0 500 500;" xml:space="preserve">
<style type="text/css">
	.st0{clip-path:url(#SVGID_2_);}
	.st1{fill:#DBE0FC;}
	.st2{fill-rule:evenodd;clip-rule:evenodd;fill:#D89CC7;}
	.st3{fill:none;stroke:#000000;stroke-width:0.5;stroke-linecap:round;stroke-miterlimit:10;}
	.st4{fill:none;stroke:#000000;stroke-width:0.5;stroke-linecap:round;stroke-miterlimit:10;stroke-dasharray:12.7709,5.3212;}
	.st5{fill:none;stroke:#000000;stroke-width:0.5;stroke-linecap:round;stroke-miterlimit:10;stroke-dasharray:11.9672,4.9863;}
	.st6{fill:none;stroke:#000000;stroke-width:0.5;stroke-linecap:round;stroke-miterlimit:10;stroke-dasharray:11.6607,4.8587;}
	.st7{fill:none;stroke:#000000;stroke-width:0.5;stroke-linecap:round;stroke-miterlimit:10;stroke-dasharray:12.5107,5.2128;}
	.st8{fill:none;stroke:#000000;stroke-width:0.5;stroke-linecap:round;stroke-miterlimit:10;stroke-dasharray:10.9836,4.5765;}
	.st9{fill:none;stroke:#000000;stroke-width:0.5;stroke-linecap:round;stroke-miterlimit:10;stroke-dasharray:12.8123,5.3384;}
	.st10{fill:none;stroke:#000000;stroke-width:0.5;stroke-linecap:round;stroke-miterlimit:10;stroke-dasharray:12.1459,5.0608;}
	.st11{fill:none;stroke:#000000;stroke-width:0.5;stroke-linecap:round;stroke-miterlimit:10;stroke-dasharray:11.8123,4.9218;}
	.st12{fill:none;stroke:#000000;stroke-width:0.5;stroke-linecap:round;stroke-miterlimit:10;stroke-dasharray:11.487,4.7862;}
	.st13{fill:none;stroke:#000000;stroke-width:0.5;stroke-linecap:round;stroke-miterlimit:10;stroke-dasharray:11.4356,4.7649;}
	.st14{fill:none;stroke:#000000;stroke-width:0.5;stroke-linecap:round;stroke-miterlimit:10;stroke-dasharray:11.3601,4.7334;}
	.st15{fill:none;stroke:#000000;stroke-width:0.5;stroke-linecap:round;stroke-miterlimit:10;stroke-dasharray:12.0245,5.0102;}
	.st16{fill:none;stroke:#000000;stroke-width:0.5;stroke-linecap:round;stroke-miterlimit:10;stroke-dasharray:12.2166,5.0902;}
	.st17{fill:none;stroke:#000000;stroke-width:0.5;stroke-linecap:round;stroke-miterlimit:10;stroke-dasharray:12.1552,5.0647;}
	.st18{fill:none;stroke:#000000;stroke-width:0.5;stroke-linecap:round;stroke-miterlimit:10;stroke-dasharray:12.2005,5.0835;}
	.st19{fill:none;stroke:#000000;stroke-width:0.5;stroke-linecap:round;stroke-miterlimit:10;stroke-dasharray:11.7843,4.9101;}
	.st20{fill:#9CABFC;}
	.st21{fill:#D47172;stroke:#000000;stroke-width:0.5;stroke-miterlimit:10;}
	.st22{fill:#5F76E8;stroke:#000000;stroke-width:0.5;stroke-miterlimit:10;}
	.st23{fill:#FFFFFF;}
	.st24{fill:none;stroke:#000000;stroke-width:0.5;stroke-miterlimit:10;}
	.st25{fill:#A8DCA4;stroke:#000000;stroke-width:0.5;stroke-miterlimit:10;}
	.st26{fill:#D89CC7;stroke:#000000;stroke-width:0.5;stroke-miterlimit:10;}
	.st27{fill:#FFFFFF;stroke:#222221;stroke-width:0.5;stroke-miterlimit:10;}
	.st28{fill:#A8DCA4;}
	.st29{fill:#AFB3BC;}
	.st30{fill:#F9F9F9;}
	.st31{fill:#D89CC7;}
	.st32{opacity:0.2;fill:#DBE0FC;}
	.st33{clip-path:url(#SVGID_4_);fill:#FFFFFF;stroke:#C2C2C2;stroke-width:0.25;stroke-miterlimit:10;}
	.st34{clip-path:url(#SVGID_4_);}
	.st35{fill:#5F76E8;}
	.st36{fill:none;stroke:#2D2D2D;stroke-width:0.5;stroke-miterlimit:10;}
	.st37{fill:#2D2D2D;}
	.st38{fill:none;stroke:#222221;stroke-width:0.5;stroke-miterlimit:10;}
	.st39{opacity:0.5;fill:#FFFFFF;}
</style>
<g id="BACKGROUND">
</g>
<g id="OBJECTS">
	<g>
		<defs>
			<rect id="SVGID_1_" width="500" height="500"/>
		</defs>
		<clipPath id="SVGID_2_">
			<use xlink:href="#SVGID_1_"  style="overflow:visible;"/>
		</clipPath>
		<g class="st0">
			<path class="st1" d="M405,409.8c-3,1.6-6.2,3-9.4,4.1c-16.6,5.7-41.4,5.2-55.2-7.1c-22.4-20,3.4-43.2,21-54.5
				c11.1-7.1,22-15.2,34.6-18.9c12.7-3.7,28-2,36.6,8c9.5,11.2,7.3,28.6,0.1,41.4C426.4,394.2,416.6,403.7,405,409.8z"/>
			<g>
				<path class="st1" d="M52.5,347.1c-5.4-17.5-6.6-36-2-54c9.2-36,35.6-58,66.3-76.1c33.7-19.8,73.8-26.3,105.1-51.5
					c29.7-23.9,48.4-59.8,79.3-82.2c31.5-22.8,78.5-32.6,112.5-9.6c21.8,14.7,35.7,39.8,38.3,65.9c2.5,24.6-7.8,54-25.4,71.8
					c-14.8,14.9-37,22.6-57,27.3c-39.8,9.4-95.1,7.1-110.8,52c-5.1,14.6-3.9,30.6-5,46c-1.7,25.7-10,51.5-26.6,71.3
					c-16.6,19.8-42,32.8-67.8,31.2c-16.5-1-32.2-7.6-46.3-16.2C85.1,405.9,62.1,378,52.5,347.1z"/>
			</g>
		</g>
		<g class="st0">
			<g>
				<g id="xsrjP0_3_">
					<g>
						<path class="st2" d="M392.6,164c-0.7-0.3-1.2-0.9-1.5-1.6c-1-2.4-0.7-5.1-0.2-7.7c0-0.2,0.1-0.5,0.3-0.6
							c1.2-1.4,2.6-2.2,3.6-3.8c0.7-1,1.2-2.2,1.5-3.3c0.3-0.9,0.1-3,0.6-3.7c1.5-2.2,2.8,2.3,2.9,3.3c0.1,1-0.2,2-0.4,3
							c-0.1,0.7-0.3,1.5-0.4,2.2c0.2,0.1,0.4,0.1,0.6,0.1c2.2,0,4.5,0,6.7,0c0.9,0,1.4,0.3,1.5,0.9c0.2,0.8-0.2,1.6-1,1.9
							c-0.2,0.1-0.5,0-0.5,0.3c0,0.3,0.3,0.2,0.4,0.3c0.8,0.6,0.7,1.7-0.3,2.4c-0.2,0.2-0.7,0.1-0.7,0.4c0,0.3,0.4,0.3,0.6,0.4
							c0.7,0.6,0.3,1.9-0.6,2.3c-0.1,0.1-0.3,0.1-0.4,0.2c-0.1,0.1-0.2,0.2,0,0.3c1,0.7,1,1.7,0,2.4c-0.1,0.1-0.2,0.1-0.3,0.2
							c-0.4,0.3-0.8,0.3-1.2,0.3c-3.5,0-7,0-10.6,0C393.2,164.2,392.9,164.2,392.6,164z"/>
						<path class="st2" d="M384.9,159.2c0-1.7,0-3.4,0-5.1c0-0.3,0-0.5,0.3-0.5c1.4,0,2.8,0,4.2,0c0.3,0,0.3,0.1,0.3,0.5
							c0,3.4,0,6.8,0,10.2c0,0.4-0.1,0.6-0.4,0.5c-1.3,0-2.7,0-4,0c-0.3,0-0.4-0.2-0.4-0.6C385,162.6,384.9,160.9,384.9,159.2z"/>
					</g>
				</g>
			</g>
			<g>
				<g id="xsrjP0_4_">
					<g>
						<path class="st2" d="M136.3,146c-0.5-0.3-1-0.8-1.2-1.3c-0.8-1.9-0.6-4.1-0.1-6.2c0-0.2,0.1-0.4,0.2-0.5
							c0.9-1.1,2.1-1.8,2.9-3.1c0.5-0.8,0.9-1.7,1.2-2.7c0.2-0.8,0.1-2.4,0.5-3c1.2-1.8,2.3,1.9,2.4,2.7c0.1,0.8-0.2,1.6-0.3,2.4
							c-0.1,0.6-0.2,1.2-0.3,1.8c0.1,0.1,0.3,0,0.5,0.1c1.8,0,3.6,0,5.4,0c0.8,0,1.1,0.2,1.2,0.7c0.1,0.6-0.2,1.3-0.8,1.6
							c-0.1,0.1-0.4,0-0.4,0.2c0,0.2,0.2,0.2,0.4,0.3c0.7,0.4,0.5,1.4-0.2,1.9c-0.2,0.1-0.5,0.1-0.5,0.3c0,0.2,0.3,0.2,0.5,0.4
							c0.5,0.5,0.3,1.5-0.5,1.9c-0.1,0.1-0.2,0.1-0.3,0.1c-0.1,0.1-0.2,0.1,0,0.3c0.8,0.6,0.8,1.3,0,1.9c-0.1,0.1-0.2,0.1-0.2,0.2
							c-0.3,0.2-0.6,0.2-1,0.2c-2.8,0-5.7,0-8.5,0C136.8,146.1,136.5,146.1,136.3,146z"/>
						<path class="st2" d="M130.1,142c0-1.4,0-2.7,0-4.1c0-0.3,0-0.4,0.2-0.4c1.1,0,2.2,0,3.4,0c0.2,0,0.3,0.1,0.3,0.4
							c0,2.7,0,5.5,0,8.2c0,0.3-0.1,0.4-0.3,0.4c-1.1,0-2.2,0-3.3,0c-0.3,0-0.3-0.1-0.3-0.5C130.1,144.8,130.1,143.4,130.1,142z"/>
					</g>
				</g>
			</g>
			<g>
				<g id="xsrjP0_1_">
					<g>
						<path class="st2" d="M267.9,342.3c-0.7-0.3-1.2-0.9-1.5-1.6c-1-2.3-0.7-5-0.2-7.5c0-0.2,0.1-0.5,0.2-0.6
							c1.1-1.3,2.6-2.2,3.6-3.7c0.7-1,1.1-2.1,1.5-3.3c0.3-0.9,0.1-2.9,0.6-3.7c1.5-2.1,2.8,2.3,2.9,3.3c0.1,1-0.2,2-0.4,2.9
							c-0.1,0.7-0.3,1.4-0.4,2.1c0.2,0.1,0.4,0.1,0.6,0.1c2.2,0,4.4,0,6.6,0c0.9,0,1.4,0.3,1.5,0.9c0.2,0.8-0.2,1.5-1,1.9
							c-0.2,0.1-0.5,0-0.5,0.3c0,0.3,0.3,0.2,0.4,0.3c0.8,0.5,0.7,1.7-0.3,2.3c-0.2,0.2-0.7,0.1-0.7,0.4c0,0.3,0.4,0.3,0.6,0.4
							c0.6,0.6,0.3,1.8-0.6,2.3c-0.1,0.1-0.3,0.1-0.4,0.2c-0.1,0.1-0.2,0.2,0,0.3c1,0.7,0.9,1.6,0,2.3c-0.1,0.1-0.2,0.1-0.3,0.2
							c-0.3,0.3-0.8,0.3-1.2,0.3c-3.5,0-6.9,0-10.4,0C268.5,342.5,268.2,342.5,267.9,342.3z"/>
						<path class="st2" d="M260.4,337.6c0-1.7,0-3.3,0-5c0-0.3,0-0.5,0.3-0.5c1.4,0,2.7,0,4.1,0c0.3,0,0.3,0.1,0.3,0.5
							c0,3.3,0,6.7,0,10c0,0.4-0.1,0.5-0.4,0.5c-1.3,0-2.6,0-4,0c-0.3,0-0.4-0.2-0.4-0.6C260.4,340.9,260.4,339.3,260.4,337.6z"/>
					</g>
				</g>
			</g>
			<g>
				<g id="xsrjP0_2_">
					<g>
						<path class="st2" d="M244.6,318.8c-0.6-0.3-1.1-0.8-1.4-1.5c-0.9-2.2-0.6-4.7-0.2-7c0-0.2,0.1-0.4,0.2-0.6
							c1.1-1.2,2.4-2,3.3-3.4c0.6-0.9,1.1-2,1.4-3c0.3-0.9,0.1-2.7,0.6-3.4c1.4-2,2.6,2.1,2.7,3c0.1,0.9-0.2,1.8-0.3,2.7
							c-0.1,0.7-0.2,1.3-0.4,2c0.2,0.1,0.4,0.1,0.5,0.1c2,0,4.1,0,6.1,0c0.9,0,1.3,0.2,1.4,0.8c0.1,0.7-0.2,1.4-0.9,1.8
							c-0.2,0.1-0.4,0-0.4,0.2c0,0.2,0.3,0.2,0.4,0.3c0.7,0.5,0.6,1.6-0.2,2.2c-0.2,0.1-0.6,0.1-0.6,0.4c0,0.2,0.4,0.2,0.5,0.4
							c0.6,0.6,0.3,1.7-0.6,2.1c-0.1,0.1-0.3,0.1-0.4,0.1c-0.1,0.1-0.2,0.1,0,0.3c0.9,0.6,0.9,1.5,0,2.2c-0.1,0.1-0.2,0.1-0.3,0.2
							c-0.3,0.2-0.7,0.2-1.1,0.2c-3.2,0-6.4,0-9.6,0C245.1,319,244.8,318.9,244.6,318.8z"/>
						<path class="st2" d="M237.6,314.4c0-1.5,0-3.1,0-4.6c0-0.3,0-0.5,0.3-0.5c1.3,0,2.5,0,3.8,0c0.2,0,0.3,0.1,0.3,0.4
							c0,3.1,0,6.2,0,9.3c0,0.4-0.1,0.5-0.3,0.5c-1.2,0-2.4,0-3.7,0c-0.3,0-0.3-0.2-0.3-0.5C237.6,317.5,237.6,316,237.6,314.4z"/>
					</g>
				</g>
			</g>
			<g>
				<g>
					<g>
						<line class="st3" x1="297" y1="85.2" x2="300.5" y2="90.1"/>
						<line class="st4" x1="303.6" y1="94.4" x2="344" y2="151.2"/>
						<polyline class="st3" points="345.6,153.3 349,158.2 344.9,162.6 						"/>
						<line class="st5" x1="341.5" y1="166.2" x2="273.1" y2="238"/>
						<line class="st3" x1="271.3" y1="239.8" x2="267.2" y2="244.2"/>
					</g>
				</g>
				<g>
					<g>
						<line class="st3" x1="349" y1="158.2" x2="343.1" y2="157.9"/>
						<polyline class="st6" points="338.2,157.7 244.9,153.5 135.6,106.6 						"/>
						<line class="st3" x1="133.4" y1="105.7" x2="127.9" y2="103.3"/>
					</g>
				</g>
				<g>
					<g>
						<line class="st3" x1="43.4" y1="210.5" x2="49.2" y2="208.9"/>
						<line class="st7" x1="54.2" y1="207.5" x2="239.2" y2="154.9"/>
						<polyline class="st3" points="241.8,154.1 247.5,152.5 248.6,158.4 						"/>
						<line class="st8" x1="249.5" y1="162.9" x2="263.6" y2="237.1"/>
						<line class="st3" x1="264" y1="239.3" x2="265.1" y2="245.2"/>
					</g>
				</g>
				<g>
					<g>
						<line class="st3" x1="205.3" y1="326.8" x2="208.1" y2="332.1"/>
						<line class="st9" x1="210.6" y1="336.8" x2="251.8" y2="414.7"/>
						<line class="st3" x1="253" y1="417.1" x2="255.8" y2="422.4"/>
					</g>
				</g>
				<g>
					<g>
						<line class="st3" x1="300.9" y1="79" x2="306.3" y2="81.5"/>
						<line class="st10" x1="310.9" y1="83.6" x2="433.8" y2="139.9"/>
						<polyline class="st3" points="436.1,140.9 441.5,143.4 441.5,149.4 						"/>
						<line class="st11" x1="441.6" y1="154.4" x2="442.2" y2="252.3"/>
						<polyline class="st3" points="442.2,254.8 442.3,260.8 436.3,260.6 						"/>
						<line class="st12" x1="431.5" y1="260.4" x2="271.3" y2="255"/>
						<polyline class="st3" points="268.9,254.9 262.9,254.7 258.6,259 						"/>
						<polyline class="st13" points="255.3,262.4 205.2,312.6 136.5,335.8 						"/>
						<line class="st3" x1="134.2" y1="336.5" x2="128.6" y2="338.5"/>
					</g>
				</g>
				<g>
					<g>
						<line class="st3" x1="127.2" y1="346.8" x2="132.5" y2="349.6"/>
						<line class="st14" x1="136.6" y1="351.9" x2="247.7" y2="412.2"/>
						<polyline class="st3" points="249.8,413.3 255,416.2 259.7,412.4 						"/>
						<line class="st15" x1="263.5" y1="409.2" x2="432.6" y2="270.1"/>
						<line class="st3" x1="434.5" y1="268.5" x2="439.2" y2="264.7"/>
					</g>
				</g>
				<g>
					<g>
						<line class="st3" x1="258.9" y1="256.9" x2="253" y2="255.6"/>
						<line class="st16" x1="248.1" y1="254.6" x2="47.4" y2="212"/>
						<polyline class="st3" points="44.9,211.5 39,210.3 42.8,205.6 						"/>
						<line class="st17" x1="46" y1="201.6" x2="119.9" y2="109.7"/>
						<polyline class="st3" points="121.5,107.7 125.3,103 131.2,102.4 						"/>
						<line class="st18" x1="136.3" y1="101.9" x2="288.5" y2="86.1"/>
						<polyline class="st3" points="291,85.8 297,85.2 291.6,87.8 						"/>
						<line class="st19" x1="287.2" y1="89.9" x2="49.1" y2="205.6"/>
						<line class="st3" x1="46.9" y1="206.7" x2="41.5" y2="209.3"/>
					</g>
				</g>
				<g>
					<circle class="st20" cx="126.5" cy="336" r="6.7"/>
					<path class="st20" d="M139.6,352c-2-5.3-7.1-9-13.1-9c-6,0-11.1,3.7-13.1,9H139.6z"/>
				</g>
				<g>
					<circle class="st20" cx="442.3" cy="247" r="8.7"/>
					<path class="st20" d="M459.4,267.8c-2.6-6.8-9.3-11.7-17-11.7c-7.8,0-14.4,4.9-17,11.7H459.4z"/>
				</g>
				<g>
					<circle class="st20" cx="263.7" cy="241.4" r="8.7"/>
					<path class="st20" d="M280.7,262.2c-2.6-6.8-9.3-11.7-17-11.7s-14.4,4.9-17,11.7H280.7z"/>
				</g>
				<g>
					
						<ellipse transform="matrix(0.6352 -0.7724 0.7724 0.6352 63.2151 388.387)" class="st20" cx="442.7" cy="127.3" rx="9.7" ry="9.7"/>
					<path class="st20" d="M461.7,150.4c-2.9-7.6-10.3-13-19-13c-8.7,0-16,5.4-19,13H461.7z"/>
				</g>
				<g>
					
						<ellipse transform="matrix(0.7071 -0.7071 0.7071 0.7071 -25.3001 214.1928)" class="st20" cx="245.9" cy="137.6" rx="9.7" ry="9.7"/>
					<path class="st20" d="M264.9,160.8c-2.9-7.6-10.3-13-19-13c-8.7,0-16,5.4-19,13H264.9z"/>
				</g>
				<g>
					<circle class="st20" cx="128.1" cy="87.8" r="9.3"/>
					<path class="st20" d="M146.3,110c-2.8-7.3-9.9-12.5-18.2-12.5s-15.4,5.2-18.2,12.5H146.3z"/>
				</g>
				<g>
					<ellipse class="st20" cx="42.6" cy="208.3" rx="9" ry="8.7"/>
					<path class="st20" d="M60.3,229.1c-2.7-6.9-9.6-11.7-17.7-11.7c-8.1,0-14.9,4.9-17.7,11.7H60.3z"/>
				</g>
				<g>
					
						<ellipse transform="matrix(0.1598 -0.9872 0.9872 0.1598 -135.9372 463.8847)" class="st20" cx="204.5" cy="311.8" rx="8.4" ry="8.4"/>
					<path class="st20" d="M221,331.9c-2.5-6.6-9-11.3-16.5-11.3c-7.5,0-13.9,4.7-16.5,11.3H221z"/>
				</g>
				<g>
					
						<ellipse transform="matrix(0.7071 -0.7071 0.7071 0.7071 39.8696 231.0753)" class="st20" cx="298.9" cy="67.4" rx="9.5" ry="9.5"/>
					<path class="st20" d="M317.5,90.1c-2.9-7.5-10.1-12.8-18.6-12.8c-8.5,0-15.7,5.3-18.6,12.8H317.5z"/>
				</g>
				<g>
					
						<ellipse transform="matrix(0.7071 -0.7071 0.7071 0.7071 -222.1505 302.3106)" class="st20" cx="253.8" cy="419.3" rx="9.7" ry="9.7"/>
					<path class="st20" d="M272.9,442.6c-2.9-7.7-10.4-13.1-19.1-13.1c-8.7,0-16.1,5.4-19.1,13.1H272.9z"/>
				</g>
				<g>
					<circle class="st20" cx="348.1" cy="151.1" r="8.7"/>
					<path class="st20" d="M365.1,171.9c-2.6-6.8-9.3-11.7-17-11.7s-14.4,4.9-17,11.7H365.1z"/>
				</g>
			</g>
			<g>
				
					<ellipse transform="matrix(0.7071 -0.7071 0.7071 0.7071 -20.8964 329.4983)" class="st3" cx="387.3" cy="190" rx="15.2" ry="15.2"/>
				<path class="st21" d="M389.8,184.4c-1.4,0.4-2.5,2.5-2.5,2.5s-1.1-2-2.5-2.4c-4.2-1.2-6.1,2.6-4.5,6.1c1.5,3.4,7,7.4,7,7.4
					s5.4-4.1,7-7.5C395.9,186.9,394,183.2,389.8,184.4z"/>
			</g>
			<g>
				<circle class="st3" cx="287.7" cy="130.9" r="13.7"/>
				<path class="st21" d="M290.2,125.3c-1.4,0.4-2.5,2.5-2.5,2.5s-1.1-2-2.5-2.4c-4.2-1.2-6,2.6-4.4,6c1.5,3.3,7,7.4,7,7.4
					s5.4-4.1,6.9-7.5C296.2,127.8,294.4,124,290.2,125.3z"/>
			</g>
			<g>
				<circle class="st3" cx="104.3" cy="383" r="13.7"/>
				<path class="st21" d="M107.2,376.3c-1.7,0.5-2.9,2.9-2.9,2.9s-1.2-2.4-2.9-2.8c-4.9-1.4-7.1,3-5.2,7.1c1.8,3.9,8.2,8.6,8.2,8.6
					s6.3-4.8,8.1-8.8C114.3,379.2,112.1,374.9,107.2,376.3z"/>
			</g>
			<g>
				<g>
					<g>
						
							<ellipse transform="matrix(0.1928 -0.9812 0.9812 0.1928 48.7852 450.0048)" class="st22" cx="297.9" cy="195.4" rx="27.1" ry="27.1"/>
						<path class="st23" d="M297.2,187.9c-0.1,1.7,0,3.5,0,5.3h6.7c-0.3,2.2-0.5,4.3-0.9,6.3c0,0.2-0.5,0.5-0.8,0.5
							c-1.6,0-3.2,0-5,0v22.4c-2.5,0-4.9-0.4-7.1-1.1V200h-5.9v-6.8h5.8c0-0.5,0.1-0.9,0.1-1.3c0-1.8,0-3.6,0.1-5.3
							c0.4-3.9,2.7-6.6,6.6-7.1c2.4-0.3,4.9-0.1,7.4-0.1v6.1c-0.9,0-1.8,0-2.7,0c-0.8,0-1.6,0-2.4,0.2
							C298,186,297.3,186.7,297.2,187.9z"/>
					</g>
					<path class="st22" d="M321.6,203.4c-1.4,3.5-3.6,6.6-6.3,9.2"/>
					<path class="st22" d="M313.8,214.1c-1.1,0.8-2.2,1.7-3.3,2.5"/>
					<path class="st22" d="M315.6,209.9c-0.4,0.6-0.9,1.1-1.4,1.4"/>
					<path class="st22" d="M320.9,197c-0.2,2.4-0.7,4.7-1.6,7"/>
				</g>
				<g>
					<g>
						
							<ellipse transform="matrix(0.2272 -0.9738 0.9738 0.2272 149.0473 578.5705)" class="st21" cx="439.1" cy="195.4" rx="26.3" ry="26.3"/>
						<g>
							<g>
								<path class="st23" d="M454.7,186.7c0-4.3-2.7-7-6.9-7.1c-5.9-0.1-11.7-0.1-17.6,0c-4.1,0-6.8,2.8-6.9,6.9c0,2.9,0,5.8,0,8.8
									c0,2.9,0,5.7,0,8.6c0,4.4,2.7,7.2,7,7.2c5.8,0.1,11.6,0.1,17.4,0c4.2,0,6.9-2.8,7-7C454.8,198.3,454.8,192.5,454.7,186.7z
									 M451.9,204.1c0,2.7-1.5,4.2-4.2,4.2c-5.8,0-11.6,0-17.4,0c-2.7,0-4.2-1.5-4.2-4.2c0-5.8,0-11.7,0-17.5
									c0-2.7,1.5-4.2,4.2-4.2c5.8,0,11.6,0,17.4,0c2.7,0,4.2,1.5,4.2,4.2c0,2.9,0,5.8,0,8.8C452,198.3,452,201.2,451.9,204.1z"/>
								<path class="st23" d="M439.1,187.1c-4.5,0-8.1,3.6-8.2,8.1c0,4.5,3.5,8.2,8,8.3c4.6,0.1,8.3-3.5,8.4-8.1
									C447.3,190.9,443.6,187.2,439.1,187.1z M439,200.8c-2.9-0.1-5.3-2.5-5.4-5.4c0-3,2.4-5.4,5.5-5.4c3,0,5.5,2.5,5.5,5.4
									C444.5,198.4,441.9,200.9,439,200.8z"/>
								<path class="st23" d="M449.7,187c-0.1,1.1-0.8,1.7-2,1.7c-1.2-0.1-1.9-0.8-1.8-2c0.1-1.1,0.8-1.7,2-1.7
									C449.1,185.1,449.8,185.7,449.7,187z"/>
							</g>
						</g>
					</g>
					<path class="st24" d="M450.3,217.6c4.4-2.6,8-6.5,10.3-11.1"/>
					<path class="st24" d="M461.1,204.7c0.5-0.9,0.8-1.9,1-2.9"/>
					<path class="st24" d="M459.4,203.6c-0.4,1.2-1,2.4-1.7,3.5"/>
					<path class="st24" d="M462.5,191.7c0.4,1.6,0.4,3.2,0.1,4.8"/>
					<path class="st24" d="M417.4,186c-2.2,4.2-2.8,9.2-1.7,13.8"/>
				</g>
				<g>
					<circle class="st25" cx="181.9" cy="379" r="26.3"/>
					<path class="st23" d="M192.1,389.5c-0.3,0.5-0.8,0.8-1.4,0.8c-0.3,0-0.5-0.1-0.8-0.2c-4.2-2.4-9-2.8-12.3-2.7
						c-3.7,0.1-6.4,0.8-6.4,0.8c-0.8,0.2-1.7-0.3-2-1.1c-0.2-0.8,0.3-1.7,1.1-2c0.1,0,3-0.8,7-1c2.4-0.1,4.7,0.1,6.8,0.5
						c2.7,0.5,5.2,1.4,7.3,2.7C192.2,387.7,192.5,388.7,192.1,389.5z"/>
					<path class="st23" d="M195,383.3c-0.4,0.6-1,0.9-1.6,0.9c-0.3,0-0.6-0.1-0.9-0.3c-4.9-2.9-10.7-3.4-14.6-3.2
						c-4.3,0.1-7.5,1-7.6,1c-1,0.3-2-0.3-2.3-1.3c-0.3-1,0.3-2,1.3-2.3c0.1,0,3.6-1,8.3-1.1c2.8-0.1,5.5,0.1,8,0.6
						c3.2,0.6,6.1,1.7,8.7,3.2C195.2,381.3,195.5,382.4,195,383.3z"/>
					<path class="st23" d="M196.8,377.8c-0.4,0-0.8-0.1-1.2-0.3c-11.8-6.9-27-2.8-27.2-2.7c-1.2,0.3-2.5-0.4-2.8-1.6
						c-0.3-1.2,0.4-2.5,1.6-2.8c0.2,0,4.4-1.2,10.2-1.4c3.4-0.1,6.8,0.1,9.9,0.7c3.9,0.7,7.5,2.1,10.6,3.9c1.1,0.6,1.5,2.1,0.8,3.2
						C198.4,377.3,197.6,377.8,196.8,377.8z"/>
					<path class="st24" d="M165.4,362.4c-1,1.2-2,2.4-3,3.7"/>
					<path class="st24" d="M159.9,369.9c-2.8,6.1-2.5,13.5,0.8,19.3"/>
					<path class="st24" d="M163.5,394.2c1.3,1.6,2.7,3.1,4.2,4.5"/>
				</g>
				<g>
					
						<ellipse transform="matrix(8.212764e-02 -0.9966 0.9966 8.212764e-02 -113.3325 644.8082)" class="st21" cx="293.4" cy="383.9" rx="26" ry="26"/>
					<path class="st23" d="M293.4,369.3c-8.1,0-14.6,6.6-14.6,14.6c0,8.1,6.6,14.6,14.6,14.6c8.1,0,14.6-6.6,14.6-14.6
						C308,375.9,301.5,369.3,293.4,369.3L293.4,369.3z M303,376.2c1.7,2.1,2.7,4.7,2.7,7.5c-0.6-0.1-2.9-0.6-5.7-0.6
						c-0.9,0-1.9,0-2.8,0.2c-0.1-0.2-0.2-0.4-0.2-0.6c-0.2-0.6-0.5-1.2-0.8-1.7C300.5,379.2,302.6,376.8,303,376.2L303,376.2z
						 M293.4,371.6c3.1,0,6,1.2,8.1,3.1c-0.3,0.5-2.2,2.8-6.4,4.4c-1.9-3.5-4-6.5-4.5-7.1C291.5,371.7,292.4,371.6,293.4,371.6
						L293.4,371.6z M288.1,372.8c0.4,0.6,2.5,3.5,4.5,7c-5.3,1.4-10,1.5-11.2,1.5h-0.1C282.1,377.6,284.7,374.4,288.1,372.8
						L288.1,372.8z M281,384c0-0.1,0-0.2,0-0.3c0.1,0,0.2,0,0.3,0c1.5,0,6.9-0.1,12.3-1.8c0.3,0.7,0.7,1.3,0.9,2
						c-0.1,0-0.3,0.1-0.4,0.1c-6.2,2-9.6,7.3-10.1,8.1C282.2,390,281,387.1,281,384L281,384z M293.4,396.3c-2.8,0-5.5-1-7.5-2.6
						c0.4-0.7,2.9-5.3,9.7-7.7c0,0,0,0,0,0c1.7,4.4,2.4,8.1,2.6,9.3C296.7,396,295.1,396.3,293.4,396.3L293.4,396.3z M300.4,394.1
						c-0.2-1-0.8-4.4-2.4-8.7c0.9-0.1,1.7-0.2,2.5-0.2c2.6,0,4.6,0.6,5.1,0.7C305,389.3,303.1,392.3,300.4,394.1L300.4,394.1z"/>
					<path class="st24" d="M300.8,406.4c2.5-0.4,4.9-1.6,6.8-3.3"/>
					<path class="st24" d="M284.3,405c3.5,2.4,9.5,3.1,13.6,2.1"/>
					<path class="st24" d="M285.9,361.7c-2.4,0.4-4.8,1.5-6.5,3.3"/>
					<path class="st24" d="M309.4,401.5c0.4-0.3,0.7-0.7,1-1.1"/>
				</g>
				<g>
					<circle class="st26" cx="210.1" cy="83.1" r="26.7"/>
					<path class="st23" d="M224,80c-0.3,0-0.5,0-0.8,0c-3,0-5.8-1.5-7.5-4v13.7c0,5.6-4.5,10.2-10.2,10.2c-5.6,0-10.2-4.5-10.2-10.2
						c0-5.6,4.5-10.2,10.2-10.2l0,0c0.2,0,0.4,0,0.6,0v5c-0.2,0-0.4-0.1-0.6-0.1c-2.9,0-5.2,2.3-5.2,5.2c0,2.9,2.3,5.2,5.2,5.2
						c2.9,0,5.4-2.3,5.4-5.1l0.1-23.3h4.8c0.5,4.3,3.9,7.6,8.2,8L224,80"/>
					<path class="st24" d="M217.8,106.2c4.6-1.5,8.7-4.6,11.3-8.6"/>
					<path class="st24" d="M231.2,94.3c1-1.9,1.7-3.9,2.3-6"/>
					<path class="st24" d="M190,71.4c-3,4.5-4,10.3-3,15.6"/>
					<path class="st24" d="M187.8,90.6c0,1.3,0.4,2.7,0.9,3.9"/>
					<path class="st24" d="M189.1,82.1c0,1.5,0.2,2.9,0.4,4.4"/>
				</g>
				<g>
					<circle class="st25" cx="375.1" cy="104.3" r="29"/>
					<g id="_x32_dqxSk.tif_1_">
						<g>
							<path class="st23" d="M363.7,89.1c0,0,0.1,0,0.1,0c0.9,0.1,1.7,0.4,2.3,1c0.6,0.6,0.9,1.2,1,2c0.2,1.3-0.2,2.5-1.2,3.4
								c-0.5,0.4-1.1,0.7-1.7,0.8c-0.3,0.1-0.7,0.1-1,0c-1.6-0.1-2.8-1.2-3.2-2.6c-0.1-0.3-0.1-0.5-0.1-0.8c0-0.1,0-0.1-0.1-0.1
								c0-0.1,0-0.2,0-0.3c0.1,0,0.1-0.1,0.1-0.1c0-0.1,0-0.2,0-0.3c0.1-0.7,0.4-1.4,0.9-1.9c0.7-0.7,1.5-1.1,2.4-1.2
								c0,0,0.1,0,0.1,0C363.5,89.1,363.6,89.1,363.7,89.1z"/>
							<path class="st23" d="M376.8,101.9c0,0,0.1-0.1,0.1-0.1c0.3-0.5,0.7-0.9,1.1-1.3c0.9-0.8,1.8-1.3,3-1.6
								c0.5-0.1,1.1-0.2,1.6-0.2c0.4,0,0.7,0,1.1,0c1.1,0.1,2.1,0.3,3.1,0.8c1,0.5,1.8,1.3,2.3,2.2c0.4,0.6,0.6,1.3,0.8,2
								c0.1,0.5,0.2,0.9,0.3,1.4c0,0.2,0,0.5,0.1,0.7c0,0.4,0.1,0.9,0.1,1.3c0,0,0,0,0,0c0,0.4,0,0.9,0,1.3c0,1.4,0,2.9,0,4.3
								c0,2.2,0,4.3,0,6.5c0,0.2,0,0.3-0.3,0.3c-0.9,0-1.8,0-2.7,0c-0.9,0-1.7,0-2.6,0c-0.1,0-0.3,0-0.4,0c0,0,0,0-0.1,0
								c-0.3,0-0.3-0.1-0.3-0.3c0-1.8,0-3.6,0-5.4c0-1.8,0-3.6,0-5.3c0-0.7-0.1-1.3-0.3-2c-0.1-0.4-0.3-0.7-0.5-1.1
								c-0.4-0.6-0.9-0.9-1.6-1.1c-0.2-0.1-0.5-0.1-0.8-0.1c-0.3,0-0.5,0-0.8,0c-1.2,0.1-2.1,0.7-2.6,1.9c-0.2,0.5-0.3,1-0.4,1.5
								c-0.1,0.6-0.1,1.1-0.1,1.7c0,3.3,0,6.5,0,9.8c0,0.1,0,0.1,0,0.2c0,0.1-0.1,0.1-0.2,0.1c-0.1,0-0.1,0-0.2,0c-1,0-2.1,0-3.1,0
								c-0.7,0-1.3,0-2,0c-0.2,0-0.4,0-0.6,0c0,0-0.1,0-0.1,0c-0.3,0-0.3-0.1-0.3-0.3c0-0.1,0-0.2,0-0.3c0-4.3,0-8.6,0-12.9
								c0-2.2,0-4.3,0-6.5c0-0.1,0-0.1,0-0.2c0-0.1,0.1-0.2,0.2-0.2c0,0,0.1,0,0.1,0c1.8,0,3.6,0,5.5,0c0,0,0.1,0,0.1,0
								c0.1,0,0.2,0.1,0.2,0.2c0,0.2,0,0.5,0,0.7c0,0.4,0,0.7,0,1.1c0,0.2,0,0.3,0,0.5C376.7,101.8,376.7,101.8,376.8,101.9
								C376.7,101.9,376.8,101.9,376.8,101.9z"/>
							<path class="st23" d="M360.4,109.3c0-3.3,0-6.6,0-9.9c0-0.1,0-0.1,0-0.2c0-0.1,0-0.1,0.1-0.1c0,0,0.1,0,0.1,0
								c1.9,0,3.8,0,5.8,0c0,0,0,0,0,0c0.2,0,0.3,0.1,0.3,0.3c0,0.7,0,1.5,0,2.2c0,5.8,0,11.6,0,17.4c0,0.1,0,0.1,0,0.2
								c0,0.1-0.1,0.1-0.1,0.1c-0.1,0-0.3,0-0.4,0c-0.1,0-0.1,0-0.2,0c-1.6,0-3.2,0-4.8,0c-0.1,0-0.3,0-0.4,0c0,0-0.1,0-0.1,0
								c-0.2,0-0.3,0-0.3-0.3C360.4,115.9,360.4,112.6,360.4,109.3C360.4,109.3,360.4,109.3,360.4,109.3z"/>
						</g>
					</g>
					<path class="st24" d="M381,130.1c4.4-0.7,8.6-2.8,11.9-5.8"/>
					<path class="st24" d="M394.1,122.8c1-1,2-2.1,2.9-3.1"/>
					<path class="st24" d="M354.6,87.4c-1.1,1.3-2,2.7-2.8,4.2"/>
					<path class="st24" d="M350.2,95.3c-1.8,4-2.4,8.6-1.6,13"/>
				</g>
				<g>
					<circle class="st22" cx="82.4" cy="148.9" r="28"/>
					<g>
						<path class="st23" d="M67.1,162.1c3.7,0.1,7.1-0.8,10.1-3.1c-4.2-1.3-5.8-2.5-6.4-4.9c0.9,0,1.9-0.1,2.8-0.1
							c-3.3-1.3-5.2-3.5-5.5-7.1c1,0.3,1.9,0.5,2.9,0.8c-3-3.8-3.6-6.7-1.8-9.5c3.9,4.5,8.8,7,14.8,7.4c0-0.5-0.1-0.8-0.1-1.2
							c-0.1-3.1,1.2-5.5,4-6.8c2.8-1.4,5.5-1,7.9,0.9c0.5,0.4,1,0.6,1.6,0.3c1.1-0.4,2.3-0.8,3.5-1.3c-0.5,1.5-1.5,2.6-2.7,3.5
							c0,0.1,0.1,0.1,0.1,0.2c1.2-0.3,2.3-0.6,3.5-0.9c0,0,0.1,0.1,0.1,0.1c-0.9,0.9-1.8,1.8-2.7,2.7c-0.5,0.4-0.8,0.8-0.8,1.5
							c0,10.6-7.9,19.3-18.4,20.3c-4.2,0.4-8.3-0.4-12-2.5C67.6,162.3,67.3,162.2,67.1,162.1z"/>
					</g>
					<path class="st24" d="M106.1,158.4c-1.8,4.7-5.1,8.8-9.3,11.5"/>
					<path class="st24" d="M97.7,167.3c-0.9,0.6-1.9,1.2-2.8,1.8"/>
					<path class="st24" d="M107.3,144.1c0.7,2.6,0.6,5.5-0.2,8.1"/>
					<path class="st24" d="M70.1,126.7c-3,1.1-5.7,3.1-7.5,5.8"/>
				</g>
			</g>
		</g>
		<g class="st0">
			<g>
				<path class="st27" d="M321,340.1c-0.1,1.8,0.7,3.5,2,5c2.1,2.5,4.2,5.1,6.4,7.6c5.7,6.9,6,17.3,12.9,23.3
					c3.5,3.1,8,4.9,12.4,6.6c4.4,1.7,8.9,3.4,12.6,6.3c0.7,0.5,1.5,1.2,2.4,1c1.1-0.2,1.6-1.4,1.9-2.5c1.4-5.3,1.5-10.5,1.3-15.9
					c-0.1-4.4,0.6-8.7,0.1-13.3c-1.1-9.9-5.2-19.2-10.6-27.5c-2.8-4.4-6.1-8.6-10.1-12c-4.5-3.7-8.6-5.8-14.5-5.6
					c-2.9,0.1-5.9,0.9-8.2,2.8c-3.8,3.3-4.4,8.9-5.5,13.8c-0.6,2.9-1.5,5.7-2.6,8.4C321.2,338.7,321,339.4,321,340.1z"/>
				<path class="st27" d="M380.6,344.6c-1,1.6-2,3.1-2.9,4.4c-7.7,11.4-18,26.8-7.3,38.6c16.9,18.7,49.8,28.4,73.9,31.4
					c5.4,0.7,11,1.1,16,3.3c3.6,1.6,6.7,4.2,9.8,6.7c10.5,8.7,22.8,17.1,31.6,27.6c8.6,10.3,18.1,18.8,29.9,25.6
					c18.7,10.9,42.3,15.3,62.2,6.7c15.9-6.8,28.3-23.3,28.6-40.9c0.3-20.9-22-31-37.8-40c-15.3-8.8-30.8-17.2-46.4-25.5
					c-12.9-6.9-27.5-12.5-38.4-22.2c-16.4-14.5-33.9-31.5-53.9-41c-5.4-2.5-10.9-4.7-16.5-6.7c-3.5-1.2-7-2.4-10.7-2.6
					C403.3,309.6,389.4,331.2,380.6,344.6z"/>
				<path class="st27" d="M300.2,282.7c-4.2,1-8,4.9-7.4,9.2c0.4,2.5,2.2,4.5,4.3,5.8s4.6,2,7,2.6c3.8,1,7.5,2,11.3,3
					c3.2,0.9,6.6,1.7,9.9,1.3c3.3-0.4,6.7-2.5,7.6-5.7c0.4-1.3,0.3-2.8,0.1-4.1c-1.3-6.4-5.9-8.3-11.5-8.8
					C314.4,285.3,307.5,281,300.2,282.7z"/>
				<g>
					<g>
						<path d="M379.8,396.7l58-17.2c6.2-1.9,9.1-8.1,6.4-13.9l-66.4-141.4c-2.7-5.8-10-9.1-16.3-7.2l-58,17.2
							c-6.2,1.9-9.1,8.1-6.4,13.9l66.4,141.4C366.3,395.3,373.6,398.6,379.8,396.7z"/>
					</g>
					<g>
						<path class="st23" d="M379.1,392.2l61.9-18.4c3.6-1.1,5.3-4.7,3.7-8l-68.3-145.5c-1.6-3.4-5.8-5.2-9.4-4.2L305,234.5
							c-3.6,1.1-5.3,4.7-3.7,8L369.7,388C371.2,391.4,375.5,393.3,379.1,392.2z"/>
					</g>
					<path d="M333.5,233l10.5-3.1c0.4-0.1,0.6-0.6,0.4-1l0,0c-0.2-0.4-0.7-0.6-1.1-0.5l-10.5,3.1c-0.4,0.1-0.6,0.6-0.4,1l0,0
						C332.5,232.9,333,233.1,333.5,233z"/>
					<path d="M350.3,228L350.3,228c0.4-0.1,0.6-0.6,0.4-1l0,0c-0.2-0.4-0.7-0.6-1.1-0.5l0,0c-0.4,0.1-0.6,0.6-0.4,1l0,0
						C349.4,227.9,349.9,228.1,350.3,228z"/>
					<g>
						<path class="st28" d="M326.2,305.4L326.2,305.4c0.8-0.3,1.2-1.1,0.9-1.9l-2.7-5.7c-0.4-0.8-1.4-1.2-2.2-1l0,0
							c-0.8,0.3-1.2,1.1-0.9,1.9l2.7,5.7C324.4,305.2,325.4,305.6,326.2,305.4z"/>
					</g>
					<g>
						<path class="st28" d="M313.5,278.2L313.5,278.2c0.8-0.3,1.2-1.1,0.9-1.9l-8.2-17.5c-0.4-0.8-1.4-1.2-2.2-1l0,0
							c-0.8,0.3-1.2,1.1-0.9,1.9l8.2,17.5C311.6,278.1,312.6,278.5,313.5,278.2z"/>
					</g>
					<g>
						<path d="M312.6,278.5L312.6,278.5c0.8-0.3,1.2-1.1,0.9-1.9l-8.2-17.5c-0.4-0.8-1.4-1.2-2.2-1l0,0c-0.8,0.3-1.2,1.1-0.9,1.9
							l8.2,17.5C310.8,278.3,311.8,278.7,312.6,278.5z"/>
					</g>
					<g>
						<path d="M325.4,305.6L325.4,305.6c0.8-0.3,1.2-1.1,0.9-1.9l-2.7-5.7c-0.4-0.8-1.4-1.2-2.2-1l0,0c-0.8,0.3-1.2,1.1-0.9,1.9
							l2.7,5.7C323.5,305.4,324.5,305.9,325.4,305.6z"/>
					</g>
					<g>
						<path class="st29" d="M331,315.5L331,315.5c0.8-0.3,1.2-1.1,0.9-1.9l-2.7-5.7c-0.4-0.8-1.4-1.2-2.2-1l0,0
							c-0.8,0.3-1.2,1.1-0.9,1.9l2.7,5.7C329.2,315.4,330.2,315.8,331,315.5z"/>
					</g>
					<g>
						<path d="M330.2,315.8L330.2,315.8c0.8-0.3,1.2-1.1,0.9-1.9l-2.7-5.7c-0.4-0.8-1.4-1.2-2.2-1l0,0c-0.8,0.3-1.2,1.1-0.9,1.9
							l2.7,5.7C328.3,315.6,329.3,316,330.2,315.8z"/>
					</g>
					<polygon class="st26" points="368.5,385.3 443.5,363.1 378.3,224.2 303.3,246.4 					"/>
					<g>
						<path class="st28" d="M368.4,387.4l-67.5-143.8c-2-4.3,0.1-8.9,4.7-10.3l60.1-17.8c4.6-1.4,10,1,12,5.3l67.5,143.8
							c2,4.3-0.1,8.9-4.7,10.3l-60.1,17.8C375.8,394.1,370.4,391.7,368.4,387.4z M306.3,235.1c-3.6,1.1-5.3,4.7-3.7,8.1l67.5,143.8
							c1.6,3.4,5.8,5.2,9.4,4.2l60.1-17.8c3.6-1.1,5.3-4.7,3.7-8.1l-67.5-143.8c-1.6-3.4-5.8-5.2-9.4-4.2L306.3,235.1z"/>
					</g>
					<g>
						<path class="st28" d="M369.7,387.5l-67.8-144.4c-1.7-3.7,0.1-7.6,4-8.8l60.3-17.9c3.9-1.2,8.5,0.9,10.2,4.5l67.8,144.4
							c1.7,3.7-0.1,7.6-4,8.8l-60.3,17.9C376,393.2,371.4,391.2,369.7,387.5z M306.1,235c-3.6,1.1-5.2,4.6-3.6,7.9l67.8,144.4
							c1.6,3.3,5.7,5.2,9.3,4.1l60.3-17.9c3.6-1.1,5.2-4.6,3.6-7.9l-67.8-144.4c-1.6-3.3-5.7-5.2-9.3-4.1L306.1,235z"/>
					</g>
					<g>
						<polygon class="st30" points="440.4,359.4 368.5,381.3 307,251.8 378.9,229.9 						"/>
						<g>
							<path class="st31" d="M362.5,354c-0.4,0.2-0.4,0.8-0.4,0.8s-0.5-0.4-1-0.4c-1.3,0.1-1.4,1.2-0.6,1.9c0.8,0.7,2.9,1.2,2.9,1.2
								s1.1-1.5,1.1-2.5C364.6,354.1,363.6,353.3,362.5,354z"/>
						</g>
						<g>
							<polygon class="st26" points="427.5,331.3 354.5,353.5 324.8,289.9 397.6,267.6 							"/>
						</g>
						<g>
							<g>
								<path class="st32" d="M333.9,281.7c0.9,1.8-0.1,3.8-2.1,4.4c-2,0.6-4.4-0.3-5.3-2.1c-0.9-1.8,0.1-3.8,2.1-4.4
									C330.7,278.9,333,279.9,333.9,281.7z"/>
							</g>
						</g>
						<g>
							<defs>
								<polygon id="SVGID_3_" points="440.4,359.4 368.5,381.3 307,251.8 378.9,229.9 								"/>
							</defs>
							<clipPath id="SVGID_4_">
								<use xlink:href="#SVGID_3_"  style="overflow:visible;"/>
							</clipPath>
							<polygon class="st33" points="393.7,257.1 319.3,279.8 310.9,262.1 385.2,239.4 							"/>
							<g class="st34">
								<g>
									
										<ellipse transform="matrix(0.2072 -0.9783 0.9783 0.2072 14.2787 542.9312)" class="st1" cx="342.1" cy="262.7" rx="5.5" ry="6.4"/>
								</g>
								<g>
									<path class="st1" d="M364,256c1.4,2.9-0.2,6-3.4,7c-3.3,1-7-0.5-8.4-3.4c-1.4-2.9,0.2-6,3.4-7S362.6,253.1,364,256z"/>
								</g>
								<g>
									
										<ellipse transform="matrix(0.2072 -0.9783 0.9783 0.2072 49.1291 566.4578)" class="st1" cx="374.1" cy="252.9" rx="5.5" ry="6.4"/>
								</g>
								<g>
									<path class="st1" d="M395.9,246.3c1.4,2.9-0.2,6-3.4,7c-3.3,1-7-0.5-8.4-3.4c-1.4-2.9,0.2-6,3.4-7S394.5,243.4,395.9,246.3
										z"/>
								</g>
							</g>
						</g>
						<g>
							<g>
								<path class="st1" d="M332.7,265.5c1.5,3.2-0.2,6.7-3.8,7.8c-3.6,1.1-7.8-0.6-9.3-3.8c-1.5-3.2,0.2-6.7,3.8-7.8
									C327,260.6,331.2,262.3,332.7,265.5z"/>
							</g>
							<g>
								<path class="st35" d="M334.8,268.4c0.4,0.8,0,1.7-0.9,1.9c-0.9,0.3-1.9-0.1-2.3-0.9c-0.4-0.8,0-1.7,0.9-1.9
									C333.3,267.2,334.4,267.6,334.8,268.4z"/>
							</g>
						</g>
						<g>
							<g>
								<path class="st36" d="M387.7,366.6c0.5,1-0.1,2.1-1.2,2.5c-1.2,0.4-2.5-0.2-3-1.2c-0.5-1,0.1-2.1,1.2-2.5
									C385.8,365,387.2,365.5,387.7,366.6z"/>
								<line class="st36" x1="389.3" y1="369.4" x2="387.5" y2="368.4"/>
							</g>
							<path class="st36" d="M370.1,369.8l-1.4,2.5l1.4,2.9l1.5-0.5l-0.7-1.5c-0.2-0.4,0.1-0.8,0.5-0.9c0.5-0.1,1,0,1.1,0.4l0.7,1.5
								l1.4-0.4l-1.4-2.9L370.1,369.8z"/>
							<g>
								<g>
									<line class="st24" x1="400.1" y1="361.8" x2="401.4" y2="364.6"/>
									<line class="st24" x1="399.2" y1="363.6" x2="402.3" y2="362.7"/>
								</g>
								<path class="st36" d="M402.3,365.4l-0.8,0.3c-1.3,0.4-2.7-0.2-3.2-1.3l-0.4-0.7c-0.5-1.1,0.1-2.3,1.3-2.7l0.8-0.3
									c1.3-0.4,2.7,0.2,3.2,1.3l0.4,0.7C404.1,363.8,403.5,365,402.3,365.4z"/>
							</g>
							<path class="st36" d="M415.5,356.3c-0.5,0.3-0.6,1-0.6,1s-0.7-0.5-1.3-0.5c-1.7,0.1-1.8,1.5-0.7,2.4c1.1,0.9,3.7,1.6,3.7,1.6
								s1.4-1.9,1.4-3.1C418,356.4,416.8,355.5,415.5,356.3z"/>
							<g>
								<path class="st37" d="M431.2,352.8c0.3,0.7,0,1.4-0.8,1.6c-0.8,0.2-1.6-0.1-1.9-0.8c-0.3-0.7,0-1.4,0.8-1.6
									C430,351.8,430.9,352.1,431.2,352.8z"/>
								<path class="st37" d="M433.8,355.5l-0.2-0.4c-0.4-0.8-1.4-1.2-2.2-0.9l-1.9,0.6c-0.9,0.3-1.3,1.1-0.9,1.9l0.2,0.4
									L433.8,355.5z"/>
							</g>
						</g>
						<g>
							<g>
								<path class="st36" d="M316.7,253.1l-0.3-0.1c-0.2-0.1-0.4-0.1-0.6,0l-0.2,0.1l-0.4,0.1l-0.2,0.1c-0.2,0.1-0.4,0.2-0.4,0.4
									l-0.1,0.3c-0.1,0.2-0.2,0.3-0.4,0.4l-0.3,0.1c-0.4,0.1-0.6,0.5-0.4,0.8l1.2,2.4c0.2,0.3,0.6,0.5,1,0.4l3.9-1.2
									c0.4-0.1,0.6-0.5,0.4-0.8l-1.2-2.4c-0.2-0.3-0.6-0.5-1-0.4l-0.3,0.1C317.1,253.3,316.9,253.2,316.7,253.1z"/>
								<path class="st36" d="M317.8,255.2c0.3,0.6,0,1.2-0.7,1.4c-0.7,0.2-1.4-0.1-1.7-0.7c-0.3-0.6,0-1.2,0.7-1.4
									C316.7,254.3,317.5,254.6,317.8,255.2z"/>
							</g>
							<g>
								<polygon class="st36" points="371.2,236.3 376.6,234.7 375.4,239.4 373.9,237.3 								"/>
								<line class="st36" x1="373.9" y1="237.3" x2="376.6" y2="234.7"/>
							</g>
						</g>
					</g>
					<g>
						<path class="st24" d="M368.4,387.4l-67.5-143.8c-2-4.3,0.1-8.9,4.7-10.3l60.1-17.8c4.6-1.4,10,1,12,5.3l67.5,143.8
							c2,4.3-0.1,8.9-4.7,10.3l-60.1,17.8C375.8,394.1,370.4,391.7,368.4,387.4z M306.3,235.1c-3.6,1.1-5.3,4.7-3.7,8.1l67.5,143.8
							c1.6,3.4,5.8,5.2,9.4,4.2l60.1-17.8c3.6-1.1,5.3-4.7,3.7-8.1l-67.5-143.8c-1.6-3.4-5.8-5.2-9.4-4.2L306.3,235.1z"/>
					</g>
				</g>
				<path class="st27" d="M495.1,356.4c-12.7-11.4-16.7-30.1-27.9-43.1c-1-1.1-2-2.2-3-3.3c-3-3.5-6.9-6-10.7-8.6
					c-13.6-9.2-26.5-19.5-38.3-30.9c-3.3-3.1-5.6-7.7-9.6-10.1c-2.1-1.3-5-1.7-7.1-0.3c-1,0.7-1.8,1.8-2.3,2.9
					c-1.9,3.7-2.3,8.1-1.1,12c1,3.3,3,6.1,5,8.9c7.9,10.8,26.2,19.7,27.8,34.1"/>
				<path class="st27" d="M346.4,365.9c0.2-0.1,0.3-0.2,0.5-0.3c3.6-2.5,7.2-5.9,7.6-10.3c0.2-2-0.3-4.1-1.2-5.9
					c-0.5-1.1-1.2-2.1-2.1-2.8c-1.7-1.3-4-1.3-6-0.7c-3.4,1-5.5,3.5-8.3,5.4c-2.5,1.7-5.2,3.6-6.1,6.5c-1,3,0.3,6.5,2.7,8.5
					C337.3,369.4,342.5,368.3,346.4,365.9z"/>
				<path class="st27" d="M320.1,307.3c0.8-1.6,1.7-3.2,3.3-3.8c1.8-0.6,3.7,0.2,5.2,1.3c2.5,1.8,4.3,4.5,5,7.5
					c1,5-2.4,11.8-4.7,16.1c-0.7,1.3-1.5,2.6-2.8,3.3c-2.2,1.1-4.9-0.1-6.7-1.8c-2.6-2.4-4.7-6.5-4.2-10.2
					C315.7,315.6,318.3,311,320.1,307.3z"/>
				<path class="st27" d="M340.3,341.2c5.2-7.5,4.9-20.4-4.1-23.8c-1.4-0.6-3.1-0.8-4.5-0.2c-2.7,1.2-3.2,4.7-4.5,7.4
					c-1.3,2.8-3.2,5.1-4.6,7.8c-0.9,1.6-1.7,3.3-2,5c-0.4,1.8-0.2,3.7,0.7,5.3"/>
				<path class="st38" d="M445.2,373.8c2.3,3.2,5,6.1,8,8.6"/>
				<path class="st38" d="M330.6,318.1c-0.2,1.6,0.4,3.3,1.5,4.5c1.1,1.1,2.2,1.6,1.5,3.2c-0.7,1.6-2,3.1-3.2,4.3
					c-0.2,0.2-0.4,0.3-0.6,0.4c-0.2,0.1-0.5,0-0.7,0c-0.6-0.1-1.2-0.5-1.6-0.9c-0.7-0.7-1-1.6-1.6-2.3"/>
				<path class="st38" d="M322,304.4c-0.6,1.8-0.3,3.4,0.4,5.2c0.8,2-0.8,3.2-2,4.8c-0.2,0.3-0.5,0.6-0.9,0.6
					c-0.2,0-0.4-0.1-0.6-0.3c-0.8-0.6-1.2-1.6-1.2-2.6"/>
				<path class="st38" d="M344.9,346.2c0,2.5,0.6,3.9,1.4,6.3c0,0.1,0.1,0.2,0,0.3c0,0.1-0.1,0.1-0.2,0.2c-1.8,1.2-4.5,2.8-5.8,0.4
					c-0.6-1.1-1.1-2.4-1.3-3.7"/>
				<path class="st38" d="M409.1,289.3c-0.7,0.4-1.2,1.2-1.1,2"/>
				<path class="st38" d="M406.3,290.5c1.8-0.9,3.1-2.8,3.5-4.8"/>
				<path class="st38" d="M466,317.7c3.1,3.4,5.7,7.2,7.9,11.3"/>
				<path class="st38" d="M474.8,330.9c1.3,2.6,2.5,5.1,3.8,7.7"/>
				<path class="st38" d="M472,329.3c0.4,0.7,0.8,1.5,1.2,2.2"/>
				<path class="st38" d="M397.2,266.1c-0.9,3.6-0.5,7.5,1.1,10.9"/>
				<path class="st38" d="M399.1,278.6c0.4,1.1,0.9,2.1,1.6,3.1"/>
				<path class="st38" d="M399.6,276c0.3,0.8,0.7,1.6,1,2.4"/>
				<path class="st38" d="M353.5,353c-0.3,3.3-2.1,6.4-4.8,8.2"/>
				<path class="st38" d="M373.4,386.1c2.9-0.9,5.9-1.8,8.8-2.8"/>
				<path class="st38" d="M385,382.5c0.7-0.2,1.4-0.5,2.1-0.7"/>
				<path class="st38" d="M381.7,385.3c0.7-0.1,1.4-0.2,2.1-0.3"/>
				<path class="st38" d="M402.4,336.7c1.1-0.7,2.4-1.1,3.6-1.3"/>
				<path class="st38" d="M420.7,331.2c-3.8,1-7.6,2.1-11.4,3.1"/>
				<path class="st38" d="M305.3,237.6c-1.6,1.6-1.7,4.5-0.2,6.3"/>
				<path class="st38" d="M313.8,295c-0.7,0.9-1.4,1.7-2.1,2.6"/>
				<path class="st38" d="M310.9,299.9c0.9-0.6,1.8-1.4,2.6-2.3"/>
				<path class="st38" d="M340,341.4c-1.8,0-3.6-0.1-5.4-0.1"/>
				<path class="st38" d="M341.6,328.4c0.4,1.7,0.2,3.6-0.6,5.2"/>
				<path class="st38" d="M418.2,409.2c1.8,0.5,3.6,1,5.4,1.6"/>
			</g>
			<path class="st25" d="M386.3,320.8c-1.5,1.8-2.9,3.8-3.3,6.1c-0.4,2.3,0.3,5,2.3,6.1c2.8,1.7,6.5-0.3,8.5-3
				c1.9-2.7,2.8-6,4.9-8.6c1.9-2.4,4.7-3.9,6.6-6.3c2-2.3,3-6,0.9-8.3c-1.3-1.5-3.5-1.8-5.5-1.4
				C394.5,306.9,390.1,316.2,386.3,320.8z"/>
			<path class="st27" d="M383.5,312.5c-0.1-1,0.1-2,0.8-3.1c0.9-1.6,2.5-2.7,4.3-3.1c1.2-0.3,4.2,0.2,4.4-1.3c0.2-1.1-1.5-2-2.3-2.3
				c-2.9-1.2-6.3-1.7-9.3-2.5c-9.7-2.5-19.6-7.7-29.2-1.7c-3,1.9-10.5,8.8-3,10.9c2.4,0.6,4.8-0.2,7.2-0.7c3-0.6,7.5-1,10.5-0.2
				c3.9,1.1,7.4,5.6,10.4,8.1c1,0.9,2.1,1.8,3.4,2c1.3,0.3,2.9-0.4,3.1-1.7c0.1-0.3,0.1-0.5,0-0.8
				C383.9,314.7,383.6,313.6,383.5,312.5z"/>
			<path class="st27" d="M411.4,319.5c-2.1-1.5-6.9-1.4-9.1-2.6c-3.9-2.3-4.6-7.6-9.7-8.1c-1.8-0.2-3.8,0.5-4.5,2.2
				c-0.6,1.5,0.1,3.2,0.8,4.6c2.7,5.8,13.6,21.8,21.7,14.5c2.6-2.4,3.3-6.6,1.6-9.6C412,320,411.7,319.8,411.4,319.5z"/>
			<path class="st21" d="M367.7,328.8c-3.9,6.3-13.1,4.8-15.2-2.3c-2-6.8,5-15,10.8-17.3c6.2-2.5,11.1-6.8,12-14
				c0.2-1.4,0.2-2.9,0.7-4.2c0.5-1.2,1.3-2.3,2.3-3.2c2.1-2,4.8-3.6,7.6-3.7c2.9-0.2,6,1.2,7.2,3.9c1.6,3.5-0.5,7.7-3.5,10.1
				c-3,2.4-6.8,3.6-10.1,5.6c-7.5,4.5-8,11.9-9.5,19.5C369.6,325.1,368.8,327,367.7,328.8z"/>
			<path class="st27" d="M336.3,299.4c0.5,0.8,1.2,1.4,2.3,1.7c6.6,1.7,7.2-9.4,0.5-8.2C336.1,293.5,334.8,296.9,336.3,299.4z"/>
		</g>
		<g class="st0">
			<path class="st23" d="M217.5,233.6c-8.8,3.7-17.9,7.1-27.4,8c-4.7,0.4-10.6-0.7-11.9-5.3c-0.8-3,1-6.1,2.9-8.5
				c8.2-10.1,20.4-15.9,32.2-21.4c6.6-3.1,26.1-6.6,29.5,3.3C246.7,221,224.8,230.5,217.5,233.6z"/>
			<path class="st3" d="M217.5,233.6c-8.8,3.7-17.9,7.1-27.4,8c-4.7,0.4-10.6-0.7-11.9-5.3c-0.8-3,1-6.1,2.9-8.5
				c8.2-10.1,20.4-15.9,32.2-21.4c6.6-3.1,26.1-6.6,29.5,3.3C246.7,221,224.8,230.5,217.5,233.6z"/>
			<g>
				<path class="st23" d="M209.6,239.1c0.7,1.3,1.1,2.8,1.1,4.4c0.1,4.7-1,9.2-2.1,13.7c-1.1,4.6-2.6,11-7.7,12.5
					c-2.5,0.7-5.1,1.2-7.7,1.4c-3,0.3-6.2,0.1-8.8-1.5c-2.5-1.6-4-5.2-2.5-7.8c1-1.7,2.9-2.6,4.3-3.8c3.3-2.9,4.2-7.5,5.3-11.7
					c1.4-5.4,5.4-8.2,9-12c0.3-0.3,0.6-0.7,1-0.9c1.2-0.6,2.7,0.1,3.7,1C207.1,235.6,208.6,237.2,209.6,239.1z"/>
				<path class="st23" d="M88.6,208.9c2.6-5.1,7-8.9,11.9-11.7c5.6-3.3,11.2-6.2,17.2-8.7c2.2-0.9,4.6-1.8,7-1.3
					c2.4,0.5,4.2,2.4,5.6,4.4c1.7,2.5,2.9,5.4,3.8,8.4c0.9,2.9,1,6.2,2,9c2.3,6.3,3.9,12.1,2.9,18.9c-0.3,2.3-0.8,4.6-1.8,6.7
					c-1.8,3.8-4.8,6.8-7.8,9.6c-2.7,2.5-5.5,5.1-8.9,6.7c-3,1.4-6.4,2.1-9.7,2.4c-11.1,1-22.7-1.5-31.5-8.3
					c-4.8-3.7-2.6-10.2-0.5-14.6C82,223.2,85.1,216,88.6,208.9z"/>
				<path class="st23" d="M68.6,352.5c-2.9,2.6-5.6,5.4-8,8.4c-2.3,2.8-4.3,5.7-6.6,8.4c-3.4,4-7.2,7.7-11.3,11
					c-3.8,3.1-6.5,7.9-9.5,11.8C26,401,18.3,409.4,9.9,417.2c-2.1,1.9-4.2,3.8-6.6,5.2c-2.6,1.4-5.5,2.2-8.4,2.7
					c-4.5,0.7-9.1,0.8-13.5,0.1c-10-1.6-19.2-6.6-27.8-12c-4.6-2.9-9.2-5.9-13.3-9.4c-2.6-2.2-5-4.7-6.6-7.7
					c-1.8-3.4-3.4-8.5-3.1-12.4c0.3-3.5,2.5-7.6,3.9-10.9c3.4-8.1,8-15.7,13.6-22.4c13.5-16.2,32.1-26.9,49.4-38.5
					c16.8-11.2,33.1-22.8,47.9-36.5c6.4-6,12.9-10.5,16.1-19.1c1.6-4.3,2.2-8.8,3.8-13.1c1.8-4.9,4.7-9.3,7.6-13.7
					c2.4-3.6,4.8-7.2,7.2-10.8c4-6.1,8.1-12.2,13.9-16.6c1.1-0.9,2.4-1.7,4.1-0.7c0.8,0.5,1.4,1.3,1.6,2.2
					c1.6,5.1,0.6,13.2,0.2,18.4c-0.5,6.6-1.6,13.1-1.7,19.7c-0.1,6,0.9,10.8,2.9,16.3c2.1,5.9,2.7,12.4,4.1,18.5
					c2.1,8.8,6,16.2,13.2,21.8c6.8,5.3,15.5,0,22.9-2c2.5-0.7,6.2-0.9,8.3-2.5c2-1.5,3.8-4.7,5.3-6.7c2.3-3.2,9.3-12.7,14-7.3
					c0.7,0.8,1.1,1.7,1.3,2.7c1.1,4.2,4.5,14.5,1,18.7c-1.2,1.4-2.8,2.5-4.4,3.5c-9.6,6.1-20.2,10.6-30.4,15.7
					c-6.5,3.3-13.6,5.2-20.6,7c-6.9,1.7-14.6,2.9-20.7,6.6C86,339.3,76.6,345.1,68.6,352.5z"/>
				<path class="st23" d="M191.5,267.2c1.4,5.2,0.5,10.8-0.3,16.1c-0.3,2.2-0.7,4.5-2.1,6.3c-1.1,1.4-2.8,2.3-4.5,3
					c-4.2,1.6-9,1.9-13.4,0.9c-3.1-0.7-6.4-2.4-7.1-5.5c-0.4-2,0.3-4,1.1-5.8c1.3-3.1,2.5-6.3,3.8-9.4c2.2-5.5,5.5-12.9,11.7-15.1
					C186.1,255.7,190.4,262.9,191.5,267.2z"/>
				<g>
					<g>
						<path d="M112.8,319.8l-49.4-34.6c-5.3-3.7-6-10.5-1.6-15.2l107.6-112.6c4.4-4.6,12.3-5.4,17.7-1.6l49.4,34.6
							c5.3,3.7,6,10.5,1.6,15.2L130.5,318.2C126.1,322.8,118.2,323.6,112.8,319.8z"/>
					</g>
					<g>
						<path class="st23" d="M115,315.8l-52.7-37c-3.1-2.2-3.5-6.1-0.9-8.8l110.8-115.9c2.6-2.7,7.1-3.1,10.2-1l52.7,37
							c3.1,2.2,3.5,6.1,0.9,8.8L125.2,314.8C122.7,317.5,118.1,318,115,315.8z"/>
					</g>
					<path d="M208.7,179.7l-9-6.3c-0.4-0.3-0.4-0.7-0.1-1.1l0,0c0.3-0.3,0.9-0.4,1.2-0.1l9,6.3c0.4,0.3,0.4,0.7,0.1,1.1l0,0
						C209.6,179.9,209,180,208.7,179.7z"/>
					<path d="M194.3,169.6L194.3,169.6c-0.4-0.3-0.4-0.7-0.1-1.1l0,0c0.3-0.3,0.9-0.4,1.2-0.1l0,0c0.4,0.3,0.4,0.7,0.1,1.1l0,0
						C195.2,169.8,194.7,169.9,194.3,169.6z"/>
					<g>
						<path class="st35" d="M192.5,250.5L192.5,250.5c-0.7-0.5-0.8-1.4-0.2-2.1l4.4-4.6c0.6-0.6,1.7-0.7,2.4-0.2l0,0
							c0.7,0.5,0.8,1.4,0.2,2.1l-4.4,4.6C194.3,250.9,193.2,251,192.5,250.5z"/>
					</g>
					<g>
						<path class="st35" d="M213.2,228.9L213.2,228.9c-0.7-0.5-0.8-1.4-0.2-2.1l13.3-13.9c0.6-0.6,1.7-0.7,2.4-0.2l0,0
							c0.7,0.5,0.8,1.4,0.2,2.1l-13.3,13.9C215,229.3,213.9,229.4,213.2,228.9z"/>
					</g>
					<g>
						<path d="M213.9,229.4L213.9,229.4c-0.7-0.5-0.8-1.4-0.2-2.1l13.3-13.9c0.6-0.6,1.7-0.7,2.4-0.2l0,0c0.7,0.5,0.8,1.4,0.2,2.1
							l-13.3,13.9C215.7,229.8,214.6,229.9,213.9,229.4z"/>
					</g>
					<g>
						<path d="M193.2,251L193.2,251c-0.7-0.5-0.8-1.4-0.2-2.1l4.4-4.6c0.6-0.6,1.7-0.7,2.4-0.2l0,0c0.7,0.5,0.8,1.4,0.2,2.1
							l-4.4,4.6C195,251.4,194,251.5,193.2,251z"/>
					</g>
					<g>
						<path class="st29" d="M184.8,258.6L184.8,258.6c-0.7-0.5-0.8-1.4-0.2-2.1l4.4-4.6c0.6-0.6,1.7-0.7,2.4-0.2l0,0
							c0.7,0.5,0.8,1.4,0.2,2.1l-4.4,4.6C186.6,259,185.5,259.1,184.8,258.6z"/>
					</g>
					<g>
						<path d="M185.5,259.1L185.5,259.1c-0.7-0.5-0.8-1.4-0.2-2.1l4.4-4.6c0.6-0.6,1.7-0.7,2.4-0.2l0,0c0.7,0.5,0.8,1.4,0.2,2.1
							l-4.4,4.6C187.3,259.5,186.2,259.6,185.5,259.1z"/>
					</g>
					<polygon class="st31" points="127.2,312.7 63.3,267.8 169.1,157.2 232.9,202 					"/>
					<g>
						<path class="st35" d="M113.6,315.9L62.4,280c-3.9-2.8-4.4-7.8-1.2-11.2l109.5-114.5c3.3-3.4,9.1-4,13-1.2l51.2,35.9
							c3.9,2.8,4.4,7.8,1.2,11.2L126.6,314.7C123.4,318.1,117.5,318.7,113.6,315.9z M182.5,154.4c-3.1-2.2-7.7-1.7-10.2,1
							L62.8,269.9c-2.6,2.7-2.2,6.6,0.9,8.8l51.2,35.9c3.1,2.2,7.7,1.7,10.2-1l109.5-114.5c2.6-2.7,2.2-6.6-0.9-8.8L182.5,154.4z"/>
					</g>
					<g>
						<path d="M114.3,315.4l-51.4-36.1c-3.3-2.3-3.8-6.6-1-9.5l109.9-115c2.8-2.9,7.8-3.4,11.1-1l51.4,36.1c3.3,2.3,3.8,6.6,1,9.5
							l-109.9,115C122.6,317.3,117.6,317.8,114.3,315.4z M182.5,154.2c-3-2.1-7.5-1.7-10.1,0.9l-109.9,115c-2.5,2.6-2.1,6.5,0.9,8.6
							l51.4,36.1c3,2.1,7.5,1.7,10.1-0.9l109.9-115c2.5-2.6,2.1-6.5-0.9-8.6L182.5,154.2z"/>
					</g>
				</g>
				<g>
					<g>
						<path class="st25" d="M208.7,220.9c-3.8,3.8-10.4,4.4-14.7,1.3c-4.3-3.1-4.7-8.6-0.8-12.4c3.8-3.8,10.4-4.4,14.7-1.3
							C212.2,211.6,212.5,217.1,208.7,220.9z"/>
						<path class="st23" d="M201.1,220.3c-0.2,0.1-0.5,0-0.6-0.1c-0.1-0.1-0.1-0.1-0.2-0.2c-0.6-1.5-1.9-2.6-2.9-3.3
							c-1.1-0.7-2.1-1.1-2.1-1.1c-0.3-0.1-0.4-0.4-0.3-0.7c0.2-0.3,0.5-0.4,0.8-0.3c0,0,1.1,0.4,2.3,1.2c0.7,0.5,1.4,1,1.9,1.6
							c0.7,0.7,1.2,1.5,1.5,2.2C201.7,219.8,201.5,220.2,201.1,220.3z"/>
						<path class="st23" d="M203.6,219.3c-0.3,0.1-0.5,0-0.7-0.1c-0.1-0.1-0.2-0.2-0.2-0.3c-0.7-1.8-2.3-3.1-3.5-3.9
							c-1.3-0.9-2.5-1.3-2.5-1.3c-0.4-0.1-0.5-0.5-0.3-0.8c0.2-0.3,0.6-0.5,1-0.3c0.1,0,1.3,0.5,2.8,1.5c0.9,0.6,1.6,1.2,2.2,1.9
							c0.8,0.8,1.4,1.7,1.7,2.7C204.2,218.8,204,219.2,203.6,219.3z"/>
						<path class="st23" d="M205.7,218.2c-0.1-0.1-0.2-0.2-0.3-0.3c-1.7-4.3-7.3-6.4-7.3-6.5c-0.5-0.2-0.6-0.6-0.4-1
							c0.2-0.4,0.8-0.6,1.2-0.4c0.1,0,1.6,0.6,3.4,1.8c1.1,0.7,2,1.5,2.7,2.3c1,1,1.7,2.1,2.1,3.3c0.2,0.4-0.1,0.8-0.6,1
							C206.2,218.4,205.9,218.4,205.7,218.2z"/>
					</g>
					<g>
						
							<ellipse transform="matrix(0.9912 -0.1324 0.1324 0.9912 -25.8088 21.0771)" class="st21" cx="145.6" cy="204.6" rx="10.5" ry="8.8"/>
						<path class="st23" d="M149.5,200.8c-2.4-1.7-6.1-1.4-8.3,0.7c-2.1,2.1-1.9,5.2,0.5,7c2.4,1.7,6.1,1.4,8.3-0.7
							C152.1,205.6,151.9,202.5,149.5,200.8L149.5,200.8z M150.5,204.7c-0.1,0.9-0.4,1.8-1.2,2.6c-0.1-0.1-0.7-0.8-1.6-1.4
							c-0.3-0.2-0.6-0.4-0.9-0.6c0-0.1,0.1-0.1,0.1-0.2c0.1-0.2,0.2-0.4,0.2-0.6C149,204.9,150.3,204.7,150.5,204.7L150.5,204.7z
							 M148.9,201.4c0.9,0.7,1.5,1.6,1.6,2.5c-0.2,0.1-1.4,0.3-3.1-0.2c0.4-1.3,0.5-2.6,0.5-2.8C148.3,201,148.6,201.2,148.9,201.4
							L148.9,201.4z M147,200.6c0,0.2-0.2,1.5-0.5,2.8c-2-0.8-3.4-1.7-3.7-2l0,0C143.9,200.6,145.5,200.3,147,200.6L147,200.6z
							 M141.9,202C141.9,202,142,202,141.9,202c0.1-0.1,0.1,0,0.2,0c0.5,0.3,2.1,1.4,4.2,2.2c-0.1,0.2-0.2,0.5-0.2,0.7
							c-0.1,0-0.1,0-0.2-0.1c-2.4-0.8-4.8-0.1-5.2,0C140.7,203.8,141.1,202.8,141.9,202L141.9,202z M142.3,207.9
							c-0.8-0.6-1.4-1.4-1.6-2.3c0.3-0.1,2.3-0.8,4.9,0.1c0,0,0,0,0,0c-0.7,1.5-1.4,2.7-1.7,3C143.4,208.5,142.8,208.2,142.3,207.9
							L142.3,207.9z M145,208.8c0.2-0.3,0.9-1.3,1.6-2.8c0.3,0.1,0.6,0.3,0.8,0.5c0.8,0.6,1.2,1.1,1.3,1.3
							C147.7,208.5,146.3,208.9,145,208.8L145,208.8z"/>
					</g>
					<g>
						
							<ellipse transform="matrix(0.9908 -0.1353 0.1353 0.9908 -23.9402 23.7067)" class="st25" cx="162.5" cy="188" rx="10.5" ry="8.8"/>
					</g>
					<g>
						
							<ellipse transform="matrix(0.9777 -0.2098 0.2098 0.9777 -44.5375 43.8206)" class="st22" cx="184.3" cy="231.8" rx="10.6" ry="8.9"/>
					</g>
					<g>
						<path class="st21" d="M189.2,207c-3.8,3.8-10.4,4.4-14.7,1.3c-4.3-3.1-4.7-8.6-0.8-12.4c3.8-3.8,10.4-4.4,14.7-1.3
							C192.6,197.7,193,203.2,189.2,207z"/>
						<g>
							<g>
								<path class="st23" d="M188.3,202.5c1.1-1.1,1.1-2.4-0.2-3.3c-1.7-1.2-3.5-2.5-5.2-3.7c-1.2-0.9-2.8-0.7-3.9,0.3
									c-0.8,0.8-1.5,1.5-2.3,2.3c-0.8,0.7-1.5,1.5-2.3,2.2c-1.1,1.1-1.1,2.4,0.2,3.4c1.7,1.2,3.4,2.5,5.1,3.7
									c1.3,0.9,2.8,0.7,3.9-0.4C185.3,205.5,186.8,204,188.3,202.5z M182.9,206.5c-0.7,0.7-1.5,0.8-2.4,0.2
									c-1.7-1.2-3.4-2.4-5.1-3.7c-0.8-0.6-0.8-1.3-0.1-2c1.5-1.5,3.1-3,4.6-4.6c0.7-0.7,1.6-0.8,2.4-0.2c1.7,1.2,3.4,2.4,5.1,3.7
									c0.8,0.6,0.8,1.3,0.1,2c-0.8,0.8-1.5,1.5-2.3,2.3C184.4,204.9,183.7,205.7,182.9,206.5z"/>
								<path class="st23" d="M183.6,199.3c-1.3-0.9-3.4-0.8-4.6,0.4c-1.2,1.2-1.1,2.9,0.2,3.8c1.3,1,3.4,0.8,4.6-0.3
									C185,202,184.9,200.3,183.6,199.3z M179.9,202.9c-0.8-0.6-0.9-1.8-0.2-2.5c0.8-0.8,2.2-0.9,3.1-0.3c0.9,0.6,1,1.8,0.2,2.6
									C182.2,203.4,180.8,203.5,179.9,202.9z"/>
								<path class="st23" d="M186.8,201.5c-0.3,0.3-0.7,0.3-1,0c-0.4-0.3-0.3-0.6,0-0.9c0.3-0.3,0.7-0.3,1,0
									C187.1,200.9,187.1,201.2,186.8,201.5z"/>
							</g>
						</g>
					</g>
					<g>
						<path class="st26" d="M172.3,223.6c-3.8,3.8-10.4,4.4-14.7,1.3c-4.3-3.1-4.7-8.6-0.8-12.4c3.8-3.8,10.4-4.4,14.7-1.3
							C175.8,214.3,176.1,219.9,172.3,223.6z"/>
						<path class="st23" d="M169.4,220.2c-0.1,0-0.2-0.1-0.3-0.2c-0.9-0.6-1.3-1.6-1.1-2.6l-3.6,3.5c-1.5,1.4-4,1.7-5.6,0.5
							c-1.6-1.2-1.8-3.3-0.3-4.7c1.5-1.4,4-1.7,5.6-0.5l0,0c0.1,0,0.1,0.1,0.2,0.1l-1.3,1.3c-0.1,0-0.1-0.1-0.2-0.1
							c-0.8-0.6-2.1-0.5-2.9,0.3c-0.7,0.7-0.7,1.8,0.2,2.4c0.8,0.6,2.2,0.5,2.9-0.2l6.1-6l1.4,1c-1,1.2-0.8,2.8,0.3,3.7L169.4,220.2
							"/>
					</g>
				</g>
				<g>
					<g>
						<path class="st26" d="M174.5,255.2c-3.8,3.8-10.4,4.4-14.7,1.3c-4.3-3.1-4.7-8.6-0.8-12.4c3.8-3.8,10.4-4.4,14.7-1.3
							C177.9,245.8,178.3,251.4,174.5,255.2z"/>
					</g>
					<g>
						<path class="st25" d="M119.2,244.4c-3.8,3.8-10.4,4.4-14.7,1.3c-4.3-3.1-4.7-8.6-0.9-12.4c3.8-3.8,10.4-4.4,14.7-1.3
							C122.6,235.1,123,240.6,119.2,244.4z"/>
					</g>
					<g>
						<path class="st22" d="M136,227.8c-3.8,3.8-10.4,4.4-14.7,1.3c-4.3-3.1-4.7-8.6-0.8-12.4c3.8-3.8,10.4-4.4,14.7-1.3
							C139.5,218.5,139.9,224,136,227.8z"/>
						<path class="st23" d="M130,220.2c-0.5,0.4-0.9,0.9-1.4,1.3l1.9,1.4c-0.7,0.5-1.2,1-1.9,1.4c-0.1,0-0.3,0-0.4,0
							c-0.5-0.3-0.9-0.7-1.4-1l-5.8,5.7c-0.7-0.5-1.3-1.1-1.8-1.7l5.5-5.4l-1.7-1.2l1.7-1.7l1.7,1.2c0.1-0.1,0.3-0.2,0.4-0.3
							c0.5-0.4,0.9-0.9,1.4-1.3c1.1-0.9,2.5-1.1,3.7-0.5c0.8,0.4,1.4,1,2.1,1.5l-1.6,1.6c-0.3-0.2-0.5-0.4-0.8-0.5
							c-0.2-0.2-0.5-0.3-0.7-0.4C130.7,219.9,130.3,219.9,130,220.2z"/>
					</g>
					<g>
						
							<ellipse transform="matrix(0.9777 -0.2098 0.2098 0.9777 -52.4843 37.4023)" class="st22" cx="150" cy="266" rx="10.6" ry="8.9"/>
						<g>
							<path class="st23" d="M142.4,266.3c1,0.8,2.2,1.2,3.6,1.2c-0.8-1.1-1-1.8-0.5-2.5c0.3,0.2,0.5,0.3,0.8,0.5
								c-0.6-1-0.6-1.9,0.3-2.9c0.2,0.3,0.4,0.5,0.6,0.8c0.1-1.6,0.7-2.4,1.9-2.8c-0.1,1.9,0.7,3.5,2.2,4.8c0.1-0.1,0.2-0.2,0.3-0.3
								c0.8-0.8,1.7-1.1,2.8-0.9c1.1,0.2,1.8,0.8,1.9,1.8c0,0.2,0.1,0.3,0.4,0.4c0.4,0.1,0.8,0.2,1.3,0.4c-0.5,0.3-1.1,0.4-1.7,0.3
								c0,0,0,0,0,0.1c0.4,0.2,0.8,0.3,1.2,0.5c0,0,0,0,0,0.1c-0.5,0-1,0.1-1.4,0.1c-0.3,0-0.4,0.1-0.6,0.2
								c-2.7,2.7-7.1,3.3-10.3,1.5c-1.3-0.7-2.2-1.7-2.7-3C142.5,266.5,142.4,266.4,142.4,266.3z"/>
						</g>
					</g>
					<g>
						<path class="st27" d="M154.9,241.2c-3.8,3.8-10.4,4.4-14.7,1.3c-4.3-3.1-4.7-8.6-0.8-12.4c3.8-3.8,10.4-4.4,14.7-1.3
							C158.4,231.9,158.8,237.5,154.9,241.2z"/>
					</g>
				</g>
				<path class="st39" d="M120.7,300.4l-43.4-30.5c-2.1-1.5-2.4-4.3-0.6-6.2l0,0c1.5-1.6,4.1-1.9,5.9-0.6l43.4,30.5
					c2.1,1.5,2.4,4.3,0.6,6.2l0,0C125.1,301.4,122.5,301.6,120.7,300.4z"/>
				<path class="st23" d="M206,235c-0.4-0.3-0.9-0.6-1.3-0.8c-3.5-2.3-7.1-4.4-10.8-6.4c-2.8-1.5-5.8-4.4-9.3-3.3
					c-2.2,0.7-3.5,3-4,5.3c-0.8,4.2,0.8,8.6,3.4,11.9c2.7,3.5,6.8,5.4,10.3,7.9c0.1,0.1,0.2,0.1,0.2,0.2c0.1,0.1,0,0.3-0.1,0.4
					c-0.7,1.4-3.6,5.7-4.5,7c-1.1,1.5,1.6,0.2,3.7-0.4c1.8-0.5,2.9-0.4,4.8-0.1c2.3,0.4,6-0.8,7.9-2c1.1-0.7,2.1-1.6,2.6-2.7
					c1.9-4.1,2.9-11.1-0.3-14.8C207.9,236.4,207,235.7,206,235z"/>
				<path class="st23" d="M169.7,253.7c-2.6-0.7-5.3-1.4-7.9-2.1c-1.1-0.3-2.2-0.6-3.3-0.2c-1.2,0.4-2,1.5-2.5,2.6
					c-1.7,3.9-0.3,8.7,2.5,11.9c2.8,3.3,6.7,5.3,10.7,7c4.1,1.8,9.4,3.9,9.9,6c0.4,1.6,2.9-1.7,4.1-2.9c3.6-3.6,10.9-12.4,5-16.9
					c-3.1-2.4-9-2.8-12.8-3.8C173.5,254.7,171.6,254.2,169.7,253.7z"/>
				<path class="st23" d="M157.1,275.3c-1.6-0.3-3.1-0.5-4.7-0.8c-4.9-0.7-12.1,0.3-12.2,6.8c0,2.4,1.4,4.6,3.2,6.1
					c1.8,1.5,4,2.5,6.2,3.4c2.7,1.2,6.9,2,8.8,4.5c2.3,3,2.5,7.3,7.3,7.6c2.5,0.1,4.9-1.6,6.1-3.8c1.2-2.2,1.5-4.8,1.5-7.4
					c0-3.7-0.7-7.5-2.5-10.8C169,277.4,160.6,275.9,157.1,275.3z"/>
				<g>
					
						<ellipse transform="matrix(0.9912 -0.1324 0.1324 0.9912 -32.2735 19.4814)" class="st21" cx="130.4" cy="252.4" rx="10.5" ry="8.8"/>
					<path class="st23" d="M134.3,248.6c-2.4-1.7-6.1-1.4-8.3,0.7c-2.1,2.1-1.9,5.2,0.5,7c2.4,1.7,6.1,1.4,8.3-0.7
						C136.9,253.4,136.7,250.3,134.3,248.6L134.3,248.6z M135.3,252.4c-0.1,0.9-0.4,1.8-1.2,2.6c-0.1-0.1-0.7-0.8-1.6-1.4
						c-0.3-0.2-0.6-0.4-0.9-0.6c0-0.1,0.1-0.1,0.1-0.2c0.1-0.2,0.2-0.4,0.2-0.6C133.7,252.7,135,252.5,135.3,252.4L135.3,252.4z
						 M133.6,249.2c0.9,0.7,1.5,1.6,1.6,2.5c-0.2,0.1-1.4,0.3-3.1-0.2c0.4-1.3,0.5-2.6,0.5-2.8C133,248.8,133.4,249,133.6,249.2
						L133.6,249.2z M131.7,248.4c0,0.2-0.2,1.5-0.5,2.8c-2-0.8-3.4-1.7-3.7-2l0,0C128.7,248.3,130.3,248.1,131.7,248.4L131.7,248.4z
						 M126.6,249.8C126.7,249.8,126.7,249.7,126.6,249.8c0.1-0.1,0.1,0,0.2,0c0.5,0.3,2.1,1.4,4.2,2.2c-0.1,0.2-0.2,0.5-0.2,0.7
						c-0.1,0-0.1,0-0.2-0.1c-2.4-0.8-4.8-0.1-5.2,0C125.4,251.6,125.8,250.6,126.6,249.8L126.6,249.8z M127.1,255.7
						c-0.8-0.6-1.4-1.4-1.6-2.3c0.3-0.1,2.3-0.8,4.9,0.1c0,0,0,0,0,0c-0.7,1.5-1.4,2.7-1.7,3C128.1,256.3,127.6,256,127.1,255.7
						L127.1,255.7z M129.7,256.6c0.2-0.3,0.9-1.3,1.6-2.8c0.3,0.1,0.6,0.3,0.8,0.5c0.8,0.6,1.2,1.1,1.3,1.3
						C132.4,256.3,131,256.7,129.7,256.6L129.7,256.6z"/>
				</g>
				<path class="st23" d="M114.1,214c-1.8,1.4-3.5,2.9-5.2,4.5c-0.5,0.5-1.2,1-1.9,0.8c-0.4-0.2-0.7-0.6-0.9-1
					c-2-3.7-3.5-7.6-4.4-11.7c-0.7-3.3-2.4-8.5,0.9-10.7c3.6-2.5,8.2-4.1,12.2-5.9c4.4-2,9-3.5,13.5-5.3c4.1-1.6,8.6-0.5,12.9-0.1
					c3.5,0.3,7,0.6,10.4,0.1c4.3-0.6,9.4-1.8,12,2.8c1.4,2.5,1.2,5.6,0,8.2c-1.2,2.6-3.3,4.6-5.7,6.2c-5.9,4-13.6,5.1-20.5,3.2
					c-1.4-0.4-2.7-0.9-4.1-0.9c-2.6,0-6.4,1.8-8.7,3C120.9,208.9,117.4,211.4,114.1,214z"/>
				<path class="st24" d="M169.4,272.9c2.8,1.4,5,2,8,2.7"/>
				<path class="st24" d="M156.5,253.1c-0.6,1.1,0.1,2.7,0.8,3.7c0.7,1,1.9,1.6,3,2.2c0,0,0,0,0.1,0c3.1,1.4,6.9-0.3,7.9-3.6
					c0.1-0.5,0.3-0.9,0.4-1.4"/>
				<path class="st24" d="M155.7,275.9c0.1,2.4-1.4,4.7-3.6,5.6c-2.2,0.9-4.9,0.3-6.5-1.5"/>
				<path class="st24" d="M195.7,229.3c-0.3,1.8-2,3-3.8,3.3c-1.8,0.2-3.6-0.5-5-1.6c-1.4-1.1-2.4-2.6-3.4-4.1"/>
				<path class="st24" d="M187.6,258.2"/>
				<path class="st24" d="M192.1,270.9"/>
				<path class="st24" d="M190.6,247.1c2.1,1.4,4.4,2.7,6.7,3.8"/>
				<path class="st24" d="M162.6,186.1c-2.2,0.6-4.4,1.2-6.7,1.2c-2.3,0-4.6-0.7-6.2-2.3"/>
			</g>
			<path class="st3" d="M192.2,271.1c0.4,0,0.7,0,1.1-0.1c2.6-0.2,5.2-0.7,7.7-1.4c5.1-1.5,6.6-7.9,7.7-12.5c1.1-4.5,2.2-9,2.1-13.7
				c0-0.2,0-0.4-0.1-0.6c0-0.2,0-0.3,0-0.5c0,0,0,0,0-0.1c-0.2-1.9-0.8-3.7-2-5c-0.4-0.4-0.8-0.8-1.2-1.1c-4-3.4-8.9-5.8-13.5-8.3
				c-2.8-1.5-5.8-4.4-9.3-3.3c-2.2,0.7-3.5,3-4,5.3c-0.8,4.2,0.8,8.6,3.4,11.9c1.9,2.5,4.6,4.2,7.2,5.9"/>
			<path class="st3" d="M191.2,283.3c1-6.6,1.5-14.4-0.8-20.8c-1-2.7-3.3-4.8-6.3-5.2c-2.9-0.9-6.3-1.3-8.8-2
				c-1.9-0.5-3.8-1-5.7-1.5c-2.6-0.7-5.3-1.4-7.9-2.1c-1.1-0.3-2.2-0.6-3.3-0.2c-1.2,0.4-2,1.5-2.5,2.6c-1.7,3.9-0.3,8.7,2.5,11.9
				c2.8,3.2,6.6,5.2,10.5,6.9c-1.2,3.1-2.5,6.2-3.7,9.2c-0.8,1.9-1.5,3.9-1.1,5.8c0.7,3.1,4,4.8,7.1,5.5c4.4,1,9.1,0.7,13.4-0.9
				c1.7-0.6,3.4-1.5,4.5-3C190.5,287.8,190.9,285.5,191.2,283.3z"/>
			<path class="st23" d="M157.1,275.3c-3.1-0.6-6.3-0.9-9.5-1.4c-1.1-0.2-2.3-0.3-3.4,0c-1.5,0.5-2.5,1.8-3.1,3.2
				c-1.5,3.8-0.8,7.6,2.4,10.3c1.8,1.5,4,2.5,6.2,3.4c2.7,1.2,6.9,2,8.8,4.5c2.3,3,2.5,7.3,7.3,7.6c2.5,0.1,4.9-1.6,6.1-3.8
				c1.2-2.2,1.5-4.8,1.5-7.4c0-3.7-0.7-7.5-2.5-10.8C169,277.4,160.6,275.9,157.1,275.3z"/>
			<path class="st3" d="M171.8,299c1.2-2.2,1.5-4.8,1.5-7.4c0-3.7-0.7-7.5-2.5-10.8c-1.9-3.4-10.3-4.9-13.8-5.6
				c-3.5-0.6-7-1.3-10.6-1.6c-0.7-0.1-1.4-0.1-2,0.1c-1.1,0.3-2,1.1-2.6,2.1c-1,1.5-1.6,3.6-1.6,5.5c0,2.4,1.4,4.6,3.2,6.1
				c1.8,1.5,4,2.5,6.2,3.4"/>
			<path class="st3" d="M170.4,301.4c-1.2,1.4-1.9,1.9-3.5,2.9c-9.6,6.1-20.2,10.6-30.4,15.7c-10.9,5.5-23.9,7.6-35.4,11.4
				C90,335.1,81.2,342.2,72.5,350c-19,17-34.5,37.4-51.3,56.5c-9.1,10.5-19.2,20.9-32.2,25.8c-17.7,6.6-39.2,0.8-51.1-13.8
				c-11.9-14.6-13.4-36.9-3.4-52.9c5.9-9.4,14.9-16.4,23.8-23.1c4.9,0,17.4-13.1,21.5-16.3c7.6-5.7,15.2-11.5,22.8-17.2
				c14.5-11,29.4-21.4,42.8-33.8c6.4-6,12.9-10.5,16.1-19.1c1.6-4.3,2.2-8.8,3.8-13.1c1.8-4.9,4.7-9.3,7.6-13.7
				c2.4-3.6,4.8-7.2,7.2-10.8c4-6.1,8.1-12.2,13.9-16.6"/>
			<path class="st3" d="M101.9,196.8c0.6-0.4,1.3-0.7,1.9-1.1c0.1-0.1,0.2-0.2,0.3-0.2c2-1.3,4.3-2.4,6.7-3.4
				c2.6-1.3,5.2-2.5,7.9-3.5c1.1-0.5,2.3-0.9,3.5-1.1c2.3-0.8,4.7-1.7,7-2.6c4-1.6,8.4-0.4,12.6,0c3.4,0.3,6.8,0.6,10.2,0.2
				c4.2-0.6,9.2-1.7,11.8,2.7c1.4,2.4,1.2,5.4,0,7.9c-2.2,4.6-7.3,7.9-12,9.4c-4,1.3-8.2,0.9-12.5,0.6c-3.3-0.2-6.2-1.7-9.5-1.3"/>
			<path class="st24" d="M149.4,290.6c3.4,1.7,7.1,3.4,10.8,2.7"/>
			<path class="st24" d="M153.6,274.6c-0.3,1.1-0.6,2.1-1,3.2c-0.2,0.7-0.5,1.3-0.9,1.9c-0.7,0.9-2,1.3-3.2,1.4
				c-2.7,0.2-5.2-1-7.6-2.2"/>
			<path class="st3" d="M134.7,202.5c-3.1,1.3-6.1,2.6-9.2,3.8"/>
			<path class="st38" d="M92,331.6c-2.2,1.3-4.4,2.5-6.6,3.8"/>
			<path class="st38" d="M81,338.2c-5.8,4-11.2,8.6-16.2,13.5"/>
			<path class="st38" d="M84.8,333c-1.7,0.7-3.4,1.6-4.8,2.8"/>
			<path class="st38" d="M46.5,280.9c-2.8,2.2-5.5,4.4-8.3,6.6"/>
			<path class="st38" d="M186.9,261.9c1.8,1.8,2.6,4.4,2.1,6.9"/>
			<path class="st38" d="M99.6,198.3c-0.9,0.6-1.8,1.2-2.7,1.8"/>
			<path class="st38" d="M98.1,203c-2.6,1.4-5,3.2-7.1,5.2"/>
			<path class="st38" d="M88.8,210.4c-0.5,0.6-1,1.2-1.6,1.7"/>
			<path class="st38" d="M149.9,186.6c1,0.7,2.1,1.1,3.3,1.3"/>
			<path class="st3" d="M208.6,240c-0.9,0.4-1.7,0.9-2.4,1.5"/>
			<path class="st3" d="M208.6,241.5c-0.5,0.2-1,0.5-1.4,0.9"/>
			<path class="st3" d="M189.1,270.9c0,0.6,0,1.3,0,1.9"/>
			<path class="st3" d="M77.6,337.2c-0.5,0.3-0.9,0.7-1.4,1"/>
			<path class="st3" d="M130,304c1.5-1.6,3-3.2,4.5-4.8"/>
			<path class="st3" d="M66.8,272c2.7,1.9,5.4,3.8,8,5.7"/>
			<path class="st3" d="M76.3,278.8c0.5,0.6,1.2,1,1.8,1.4"/>
			<path class="st3" d="M72.4,277.9c0.6,0.5,1.3,0.9,1.9,1.4"/>
			<path class="st3" d="M232.9,192c0.9,0.8,1.9,1.7,2,2.8c0.2,1.2-0.6,2.3-1.3,3.3"/>
		</g>
	</g>
</g>
</svg>
