<svg xmlns="http://www.w3.org/2000/svg" version="1.1" xmlns:xlink="http://www.w3.org/1999/xlink" xmlns:svgjs="http://svgjs.com/svgjs" width="512" height="512" x="0" y="0" viewBox="0 0 32 32" style="enable-background:new 0 0 512 512" xml:space="preserve" class=""><g><path d="M23 29H9a5.006 5.006 0 0 1-5-5V12a5.006 5.006 0 0 1 5-5h3.5l2.7-3.6a1.036 1.036 0 0 1 1.6 0L19.5 7H23a5.006 5.006 0 0 1 5 5v12a5.006 5.006 0 0 1-5 5zM9 9a3 3 0 0 0-3 3v12a3 3 0 0 0 3 3h14a3 3 0 0 0 3-3V12a3 3 0 0 0-3-3h-4a1 1 0 0 1-.8-.4L16 5.667 13.8 8.6a1 1 0 0 1-.8.4z" fill="#000000" data-original="#000000"></path><path d="M25.769 27.88a1 1 0 0 1-.977-.79 9 9 0 0 0-17.584 0 1 1 0 0 1-1.955-.421 11 11 0 0 1 21.494 0 1 1 0 0 1-.767 1.188.96.96 0 0 1-.211.023z" fill="#000000" data-original="#000000"></path><path d="M16 20a5 5 0 1 1 5-5 5.006 5.006 0 0 1-5 5zm0-8a3 3 0 1 0 3 3 3 3 0 0 0-3-3z" fill="#000000" data-original="#000000"></path></g></svg>