<svg xmlns="http://www.w3.org/2000/svg" version="1.1" xmlns:xlink="http://www.w3.org/1999/xlink" xmlns:svgjs="http://svgjs.com/svgjs" width="512" height="512" x="0" y="0" viewBox="0 0 48 48" style="enable-background:new 0 0 512 512" xml:space="preserve" class=""><g><path d="M41.541 1H9.01a5 5 0 0 0-4.95 4.293L1.04 26.434A4 4 0 0 0 5 31h13.541v9a7 7 0 0 0 7 7h.512a2.999 2.999 0 0 0 2.873-2.138L34.285 27h7.256a5.004 5.004 0 0 0 3.536-1.464A5.004 5.004 0 0 0 46.541 22V6a5.004 5.004 0 0 0-1.464-3.536A5.004 5.004 0 0 0 41.541 1zM26.053 45h-.512a5 5 0 0 1-5-5V30a1 1 0 0 0-1-1H5a2 2 0 0 1-1.98-2.283L6.04 5.576A3 3 0 0 1 9.01 3h23.531v22.853l-5.53 18.434a1 1 0 0 1-.958.713zm8.488-20V3h7c.796 0 1.559.316 2.121.879.563.562.879 1.325.879 2.121v16c0 .796-.316 1.559-.879 2.121a2.996 2.996 0 0 1-2.121.879z" fill="#000000" data-original="#000000"></path></g></svg>